<svg width="36" height="36" viewBox="0 0 128 128" fill="none" xmlns="http://www.w3.org/2000/svg">
<circle cx="88.6362" cy="122.875" r="5.125" fill="black"/>
<circle cx="49.6362" cy="122.875" r="5.125" fill="black"/>
<circle cx="69.1362" cy="122.875" r="5.125" fill="black"/>
<circle cx="87.1362" cy="81.125" r="5.125" fill="black"/>
<circle cx="48.1362" cy="81.125" r="5.125" fill="black"/>
<circle cx="67.6362" cy="81.125" r="5.125" fill="black"/>
<path d="M18.0112 124V98C18.0112 95.2386 20.2497 93 23.0112 93C25.7726 93 28.0112 95.2386 28.0112 98V118H33.0112C35.7726 118 38.0112 120.239 38.0112 123C38.0112 125.761 35.7726 128 33.0112 128H22.0112C19.802 128 18.0112 126.209 18.0112 124Z" fill="black"/>
<path d="M120.011 124V98C120.011 95.2386 117.773 93 115.011 93C112.25 93 110.011 95.2386 110.011 98V118H105.011C102.25 118 100.011 120.239 100.011 123C100.011 125.761 102.25 128 105.011 128H116.011C118.22 128 120.011 126.209 120.011 124Z" fill="black"/>
<path d="M17.0112 82V56C17.0112 53.2386 19.2497 51 22.0112 51C24.7726 51 27.0112 53.2386 27.0112 56V76H32.0112C34.7726 76 37.0112 78.2386 37.0112 81C37.0112 83.7614 34.7726 86 32.0112 86H21.0112C18.802 86 17.0112 84.2091 17.0112 82Z" fill="black"/>
<path d="M119.011 82V56C119.011 53.2386 116.773 51 114.011 51C111.25 51 109.011 53.2386 109.011 56V76H104.011C101.25 76 99.0112 78.2386 99.0112 81C99.0112 83.7614 101.25 86 104.011 86H115.011C117.22 86 119.011 84.2091 119.011 82Z" fill="black"/>
<path d="M9.70118 57.8453L58.2166 9.32988L64.0109 3.53553C65.9635 1.58291 69.1294 1.58291 71.082 3.53553C73.0346 5.48816 73.0346 8.65398 71.082 10.6066L65.2876 16.4009L27.9681 53.7205L16.7723 64.9163L10.9779 70.7107C9.02528 72.6633 5.85946 72.6633 3.90684 70.7107C1.95422 68.7581 1.95422 65.5922 3.90684 63.6396L9.70118 57.8453Z" fill="black"/>
<path d="M118.856 64.9163L70.3411 16.401L64.5467 10.6066C62.5941 8.65399 62.5941 5.48816 64.5467 3.53554C66.4993 1.58292 69.6651 1.58292 71.6178 3.53554L77.4121 9.32989L114.732 46.6494L125.928 57.8453L131.722 63.6396C133.674 65.5922 133.674 68.7581 131.722 70.7107C129.769 72.6633 126.603 72.6633 124.651 70.7107L118.856 64.9163Z" fill="black"/>
</svg>
