<svg width="36" height="36" viewBox="0 0 129 128" fill="black" xmlns="http://www.w3.org/2000/svg">
<g clip-path="url(#clip0_227_106)">
<path d="M66.2205 0.629883C66.3948 0.698663 66.5691 0.767443 66.7487 0.838307C67.2938 1.05483 67.8363 1.27672 68.3787 1.5C68.5432 1.56691 68.7076 1.63381 68.8771 1.70274C69.8771 2.10964 70.8734 2.52482 71.8683 2.94383C72.8421 3.35385 73.817 3.76118 74.7917 4.16895C74.9991 4.25575 75.2064 4.34255 75.42 4.43198C77.9599 5.49465 80.5053 6.54387 83.0505 7.59375C84.0333 7.99928 85.0161 8.40489 85.9988 8.81055C86.241 8.91054 86.4833 9.01054 86.7329 9.11356C89.1576 10.1147 91.5807 11.1196 94.0037 12.125C97.3841 13.5277 100.766 14.9271 104.149 16.3237C115.181 20.8783 115.181 20.8783 119.245 22.5716C120.377 23.043 121.512 23.5088 122.648 23.9707C123.126 24.1679 123.604 24.3651 124.082 24.5625C124.285 24.6431 124.488 24.7237 124.697 24.8068C124.877 24.8821 125.057 24.9575 125.243 25.0352C125.392 25.0958 125.542 25.1565 125.696 25.219C126.38 25.6635 126.693 26.0449 127.129 26.75C127.279 27.6601 127.262 28.5623 127.254 29.4829C127.255 29.7618 127.257 30.0407 127.258 30.3281C127.262 31.2645 127.258 32.2008 127.254 33.1372C127.255 33.8078 127.256 34.4783 127.258 35.1489C127.262 36.7823 127.26 38.4157 127.256 40.0491C127.252 41.951 127.253 43.8529 127.254 45.7549C127.255 49.1483 127.251 52.5417 127.245 55.9352C127.239 59.2284 127.238 62.5216 127.24 65.8148C127.243 69.4005 127.244 72.9861 127.24 76.5717C127.24 76.954 127.239 77.3363 127.239 77.7187C127.239 77.9068 127.238 78.0949 127.238 78.2887C127.237 79.6146 127.237 80.9405 127.239 82.2664C127.24 83.8822 127.238 85.4979 127.233 87.1136C127.231 87.9381 127.23 88.7625 127.232 89.5869C127.233 90.4804 127.23 91.3737 127.226 92.2671C127.228 92.6587 127.228 92.6587 127.23 93.0582C127.211 95.2511 127.211 95.2511 126.379 96.25C125.731 96.7586 125.422 96.7537 124.594 96.684C123.523 96.4799 122.617 96.1404 121.62 95.7129C121.426 95.6319 121.233 95.5509 121.033 95.4675C120.392 95.1989 119.753 94.9275 119.113 94.6563C118.657 94.4648 118.201 94.2735 117.745 94.0825C116.782 93.6789 115.819 93.2743 114.856 92.8694C112.692 91.9605 110.521 91.0668 108.35 90.1725C107.138 89.6729 105.926 89.1724 104.715 88.6719C104.476 88.5734 104.238 88.475 103.992 88.3736C101.369 87.2899 98.7474 86.2023 96.1259 85.1145C92.4699 83.5976 88.8119 82.0858 85.1531 80.5755C82.3113 79.4024 79.47 78.2282 76.6306 77.0494C75.535 76.5945 74.4392 76.1403 73.3425 75.6882C71.5868 74.9637 69.8343 74.2364 68.0974 73.4678C67.7155 73.3018 67.7155 73.3018 67.3259 73.1325C66.8848 72.9399 66.4457 72.7428 66.0095 72.5394C64.5616 71.914 63.6101 72.0096 62.1287 72.5C61.9543 72.5534 61.7799 72.6067 61.6002 72.6617C61.1013 72.8183 60.6072 72.9851 60.113 73.1563C59.9443 73.2136 59.7756 73.271 59.6018 73.3301C59.1937 73.469 58.7861 73.6093 58.3787 73.75C60.0863 74.6282 61.8146 75.4234 63.5837 76.1689C63.8418 76.2785 64.0999 76.3881 64.3658 76.5009C64.9226 76.7372 65.4796 76.9732 66.0367 77.2088C67.3897 77.781 68.7418 78.3554 70.0939 78.9296C70.5665 79.1303 71.0392 79.3309 71.5118 79.5314C75.2111 81.1016 78.9037 82.6873 82.5965 84.2726C85.4113 85.4808 88.2261 86.6889 91.0486 87.8789C91.2465 87.9624 91.4444 88.0459 91.6483 88.132C92.5311 88.5044 93.4143 88.8758 94.2984 89.2452C94.594 89.3696 94.8896 89.4939 95.1941 89.6221C95.4441 89.7266 95.694 89.8311 95.9516 89.9388C96.6287 90.25 97.2428 90.6126 97.8787 91C98.3268 91.2287 98.7779 91.4517 99.2312 91.6699C99.4956 91.7974 99.7599 91.9248 100.032 92.0561C100.317 92.1923 100.601 92.3284 100.894 92.4688C101.116 92.5753 101.116 92.5753 101.342 92.6839C104.458 94.1791 107.592 95.6333 110.728 97.083C112.58 97.9406 114.429 98.8051 116.278 99.6693C116.59 99.815 116.902 99.9607 117.214 100.106C117.369 100.179 117.524 100.251 117.684 100.326C118.683 100.793 119.684 101.258 120.685 101.721C121.371 102.039 122.057 102.358 122.743 102.677C123.069 102.828 123.395 102.979 123.721 103.129C128.236 105.214 128.236 105.214 128.629 106C128.768 107.421 128.768 107.421 128.629 108C127.758 109.003 126.86 109.581 125.659 110.106C125.491 110.182 125.323 110.259 125.151 110.337C124.598 110.587 124.043 110.832 123.488 111.078C123.094 111.255 122.701 111.432 122.307 111.61C121.083 112.16 119.856 112.706 118.629 113.25C118.44 113.334 118.251 113.417 118.057 113.504C116.594 114.153 115.131 114.802 113.667 115.449C110.596 116.806 107.547 118.207 104.504 119.625C100.167 121.646 95.8065 123.607 91.4286 125.537C89.5767 126.353 87.7279 127.177 85.8787 128C85.6623 127.579 85.4459 127.158 85.2297 126.736C85.0628 126.412 84.895 126.088 84.7268 125.764C84.3619 125.044 84.1287 124.568 84.1287 123.75C89.0287 121.463 93.9301 119.181 98.8787 117C102.151 115.557 105.402 114.072 108.644 112.563C111.626 111.175 114.61 109.793 117.613 108.453C117.891 108.328 118.17 108.204 118.456 108.075C118.831 107.909 118.831 107.909 119.214 107.739C119.429 107.644 119.643 107.548 119.865 107.45C120.379 107.25 120.379 107.25 120.879 107.25C120.879 107.085 120.879 106.92 120.879 106.75C120.551 106.646 120.551 106.646 120.217 106.54C119.438 106.271 118.711 105.963 117.965 105.613C117.692 105.486 117.42 105.359 117.139 105.229C116.701 105.023 116.701 105.023 116.254 104.813C115.943 104.667 115.632 104.522 115.321 104.377C114.669 104.073 114.017 103.768 113.366 103.462C112.41 103.014 111.453 102.568 110.496 102.121C110.342 102.049 110.187 101.977 110.028 101.903C109.717 101.758 109.406 101.613 109.094 101.467C108.629 101.25 108.164 101.033 107.699 100.816C104.428 99.2886 101.154 97.7688 97.8787 96.25C97.8752 96.6852 97.8752 96.6852 97.8716 97.1292C97.8616 98.2064 97.8452 99.2836 97.8268 100.361C97.8197 100.827 97.8144 101.293 97.8109 101.759C97.8056 102.429 97.7939 103.099 97.781 103.77C97.7807 103.978 97.7804 104.186 97.7801 104.4C97.7584 105.258 97.734 105.83 97.2767 106.567C96.2782 107.234 95.2106 107.686 94.1072 108.153C93.8514 108.264 93.5957 108.374 93.3322 108.488C92.4841 108.854 91.6345 109.216 90.7849 109.578C90.1856 109.836 89.5865 110.093 88.9874 110.351C87.2711 111.089 85.553 111.823 83.8346 112.556C83.1083 112.865 82.3822 113.175 81.6561 113.486C79.1639 114.55 76.6707 115.612 74.1766 116.672C70.199 118.362 66.2257 120.062 62.2537 121.766C61.9565 121.893 61.6593 122.02 61.3531 122.152C60.7784 122.398 60.2037 122.645 59.6291 122.891C59.0905 123.122 58.5517 123.352 58.0126 123.582C56.9292 124.044 55.8495 124.508 54.7849 125.012C54.6266 125.085 54.4683 125.158 54.3052 125.234C53.9149 125.416 53.5272 125.604 53.1399 125.792C51.2744 126.301 49.6762 125.652 48.0222 124.801C47.8279 124.704 47.6335 124.608 47.4332 124.509C47.0186 124.303 46.6047 124.095 46.1915 123.887C45.3234 123.448 44.4517 123.016 43.5801 122.584C43.1406 122.367 42.7014 122.149 42.2623 121.93C40.3572 120.984 38.436 120.077 36.5037 119.188C36.1071 119.005 36.1071 119.005 35.7026 118.819C35.194 118.585 34.6835 118.355 34.1712 118.129C33.5793 117.846 33.0508 117.556 32.4958 117.214C30.9127 116.256 30.9127 116.256 29.1201 116.054C27.8326 116.391 26.6849 117.013 25.5193 117.641C25.1637 117.819 24.8074 117.995 24.4504 118.17C23.5849 118.599 22.7301 119.044 21.8787 119.5C22.683 120.153 23.5189 120.589 24.4529 121.034C24.6013 121.105 24.7497 121.176 24.9026 121.25C25.3733 121.475 25.8447 121.698 26.3162 121.922C26.6368 122.075 26.9575 122.228 27.2781 122.381C28.0611 122.755 28.8447 123.128 29.6287 123.5C29.4715 123.898 29.3139 124.296 29.156 124.693C29.0683 124.915 28.9805 125.136 28.8901 125.365C28.5878 126.099 28.2484 126.797 27.8787 127.5C26.6013 127.34 25.5345 126.775 24.3894 126.222C24.0662 126.068 24.0662 126.068 23.7365 125.91C23.0489 125.582 22.3622 125.252 21.6755 124.922C21.2164 124.703 20.7573 124.483 20.2981 124.264C18.1187 123.223 18.1187 123.223 17.1841 122.769C16.812 122.589 16.4389 122.41 16.065 122.234C15.7998 122.106 15.7998 122.106 15.5294 121.976C15.3735 121.902 15.2177 121.829 15.0572 121.752C14.2792 121.294 13.9296 120.914 13.6599 120.047C13.6205 119.042 13.8453 118.599 14.3787 117.75C15.0707 117.297 15.0707 117.297 15.9041 116.928C16.053 116.86 16.202 116.792 16.3555 116.723C16.8301 116.509 17.3073 116.301 17.7849 116.094C18.0999 115.953 18.4147 115.812 18.7292 115.67C19.3352 115.398 19.9423 115.13 20.5508 114.863C21.4427 114.472 22.3291 114.07 23.214 113.663C23.6287 113.5 23.6287 113.5 24.1287 113.5C24.1287 113.335 24.1287 113.17 24.1287 113C23.9236 112.937 23.9236 112.937 23.7144 112.873C22.299 112.422 20.99 111.861 19.6628 111.197C19.4573 111.096 19.2518 110.995 19.04 110.891C18.6022 110.675 18.1647 110.459 17.7275 110.242C16.5818 109.674 15.4339 109.11 14.2859 108.547C14.0582 108.435 13.8305 108.323 13.5959 108.208C11.3604 107.113 9.10595 106.063 6.83929 105.034C1.9123 102.784 1.9123 102.784 1.12866 101.5C1.03428 100.838 1.03428 100.838 1.03342 100.069C1.03131 99.777 1.02919 99.485 1.02702 99.1842C1.02853 98.8648 1.03005 98.5454 1.03162 98.2164C1.0306 97.8759 1.02926 97.5354 1.02763 97.1949C1.02421 96.2708 1.02554 95.3468 1.02792 94.4227C1.02982 93.4554 1.02806 92.488 1.02688 91.5207C1.02551 89.8959 1.02731 88.2712 1.03088 86.6464C1.03496 84.7688 1.03364 82.8912 1.02951 81.0135C1.02611 79.4009 1.02563 77.7884 1.0276 76.1758C1.02876 75.2129 1.02892 74.2501 1.02644 73.2872C1.02427 72.3816 1.02578 71.4761 1.03011 70.5705C1.03158 70.0803 1.02935 69.59 1.02702 69.0997C1.02913 68.807 1.03125 68.5144 1.03342 68.2128C1.03371 67.959 1.03399 67.7052 1.03428 67.4437C1.14542 66.6268 1.39205 66.1608 1.87866 65.5C2.89427 64.8839 3.95477 64.5391 5.0882 64.1974C5.2537 64.1471 5.41921 64.0968 5.58973 64.0449C6.13912 63.8783 6.68905 63.7136 7.23901 63.5488C7.63251 63.4299 8.02597 63.3108 8.4194 63.1916C9.26174 62.9366 10.1043 62.6825 10.9471 62.429C12.2808 62.028 13.614 61.6251 14.9471 61.2219C16.3187 60.8072 17.6903 60.3925 19.0621 59.9785C22.9538 58.804 26.8428 57.6208 30.731 56.4349C31.9904 56.0509 33.25 55.6677 34.5098 55.2851C34.6832 55.2324 34.8565 55.1798 35.0351 55.1255C36.4182 54.7054 36.4182 54.7054 37.0783 54.505C39.0003 53.9211 40.9212 53.3338 42.8402 52.74C43.7863 52.4475 44.7331 52.1573 45.6801 51.8675C46.0953 51.7398 46.5101 51.611 46.9246 51.481C50.7234 50.2894 50.7234 50.2894 52.6287 50.5C53.4508 51.0755 53.7051 51.5363 53.8787 52.5C53.9006 53.0806 53.9081 53.6619 53.907 54.2429C53.9071 54.4162 53.9071 54.5895 53.9072 54.768C53.907 55.3388 53.905 55.9096 53.9031 56.4805C53.9026 56.877 53.9023 57.2735 53.902 57.6701C53.9011 58.7123 53.8986 59.7546 53.8958 60.7969C53.8933 61.861 53.8921 62.9251 53.8909 63.9893C53.8882 66.0762 53.8839 68.1631 53.8787 70.25C54.1032 70.1743 54.3278 70.0985 54.5592 70.0205C55.3911 69.7404 56.2233 69.4609 57.0555 69.1819C57.416 69.0609 57.7763 68.9396 58.1366 68.8181C58.6539 68.6437 59.1715 68.4702 59.6892 68.2969C60.0008 68.1921 60.3124 68.0874 60.6334 67.9795C61.3787 67.75 61.3787 67.75 61.8787 67.75C61.8787 47.2075 61.8787 26.665 61.8787 5.5C49.4654 9.62887 49.4654 9.62887 37.0784 13.8282C31.8212 15.6292 26.5513 17.3932 21.2816 19.1571C19.4765 19.7613 17.6719 20.3668 15.8682 20.975C14.2642 21.516 12.6595 22.0548 11.0539 22.591C10.2125 22.8721 9.37145 23.1542 8.5312 23.4389C7.60506 23.7525 6.67738 24.0615 5.74951 24.3701C5.47556 24.4636 5.20161 24.5572 4.91936 24.6536C4.66741 24.7366 4.41545 24.8195 4.15587 24.905C3.93804 24.9781 3.72022 25.0512 3.49579 25.1266C2.79546 25.2666 2.31321 25.184 1.62866 25C1.46013 24.5215 1.2939 24.0422 1.12866 23.5625C1.03585 23.2957 0.943037 23.0288 0.847412 22.7539C0.628662 22 0.628662 22 0.628662 21C8.53297 18.3595 16.4377 15.7202 24.3429 13.0825C25.2761 12.7711 26.2092 12.4598 27.1423 12.1484C27.3281 12.0864 27.5139 12.0244 27.7053 11.9605C30.7138 10.9566 33.7221 9.95185 36.7303 8.94683C39.8167 7.9157 42.9033 6.88543 45.9902 5.85596C47.8952 5.22062 49.8 4.58461 51.7045 3.94775C53.1645 3.45959 54.6249 2.97263 56.0855 2.48611C56.6849 2.28625 57.2841 2.086 57.8832 1.88534C58.7002 1.61179 59.5175 1.33963 60.335 1.06781C60.5729 0.987805 60.8107 0.907796 61.0558 0.825363C62.9842 0.18691 64.2847 -0.16986 66.2205 0.629883ZM66.3787 5.75C66.3787 26.2925 66.3787 46.835 66.3787 68C72.3831 70.7747 72.3831 70.7747 78.6287 72.75C78.6287 52.29 78.6287 31.83 78.6287 10.75C75.9394 9.50443 75.9394 9.50443 73.2195 8.33789C73.0366 8.26233 72.8537 8.18676 72.6653 8.10891C72.2868 7.95276 71.9081 7.79694 71.5294 7.64148C70.9475 7.40246 70.3665 7.16173 69.7854 6.9209C69.4145 6.76813 69.0436 6.61546 68.6726 6.46289C68.4995 6.39104 68.3263 6.31919 68.1479 6.24516C67.2914 5.87462 67.2914 5.87462 66.3787 5.75ZM83.1287 12.75C83.1287 22.8975 83.1287 33.045 83.1287 43.5C87.1712 42.51 91.2137 41.52 95.3787 40.5C95.3787 38.19 95.3787 35.88 95.3787 33.5C96.8637 33.5 98.3487 33.5 99.8787 33.5C99.8787 35.8925 99.8787 38.285 99.8787 40.75C100.822 41.1213 101.766 41.4925 102.738 41.875C103.036 41.9925 103.334 42.1099 103.641 42.231C103.99 42.368 103.99 42.368 104.346 42.5078C104.586 42.6021 104.826 42.6963 105.072 42.7935C105.569 43.0145 105.569 43.0145 105.879 43C105.879 36.07 105.879 29.14 105.879 22C103.268 20.7869 103.268 20.7869 100.622 19.6738C100.26 19.5283 99.8975 19.3829 99.5353 19.2374C99.2564 19.1259 99.2564 19.1259 98.9718 19.0122C96.2005 17.9042 93.436 16.7816 90.6882 15.6162C90.47 15.5237 90.2517 15.4312 90.0269 15.3359C88.9681 14.8867 87.9103 14.4354 86.8533 13.9821C86.4705 13.8191 86.0877 13.6561 85.7048 13.4932C85.5303 13.4176 85.3557 13.342 85.1758 13.2641C84.4498 12.9562 83.9261 12.75 83.1287 12.75ZM110.379 24C110.379 44.46 110.379 64.92 110.379 86C111.924 86.7817 111.924 86.7817 113.493 87.4807C113.686 87.5607 113.88 87.6407 114.079 87.7232C114.381 87.8467 114.381 87.8467 114.689 87.9727C115.008 88.1037 115.008 88.1037 115.333 88.2374C115.778 88.4201 116.223 88.6025 116.668 88.7844C117.351 89.064 118.034 89.3454 118.717 89.627C119.15 89.8048 119.584 89.9825 120.017 90.1602C120.324 90.2867 120.324 90.2867 120.637 90.4158C121.601 90.844 121.601 90.844 122.629 91C122.629 70.54 122.629 50.08 122.629 29C121.048 28.2097 119.51 27.4639 117.879 26.8076C117.678 26.7262 117.477 26.6447 117.271 26.5607C116.853 26.3912 116.434 26.2221 116.016 26.0535C115.373 25.7944 114.731 25.5333 114.089 25.272C113.68 25.1066 113.272 24.9414 112.863 24.7764C112.671 24.6983 112.479 24.6202 112.281 24.5397C111.359 24.1411 111.359 24.1411 110.379 24ZM93.5417 45.2485C93.3231 45.3027 93.1046 45.357 92.8794 45.4129C92.6442 45.4722 92.409 45.5316 92.1667 45.5928C91.9248 45.6532 91.6829 45.7137 91.4337 45.7759C90.9223 45.9039 90.411 46.0324 89.8998 46.1612C89.1155 46.3587 88.3309 46.5547 87.5461 46.7505C87.0499 46.8749 86.5536 46.9994 86.0574 47.124C85.7039 47.2123 85.7039 47.2123 85.3432 47.3024C85.1254 47.3574 84.9077 47.4125 84.6833 47.4692C84.4912 47.5175 84.2992 47.5658 84.1013 47.6155C83.6123 47.7389 83.6123 47.7389 83.1287 48C83.1287 49.2375 83.1287 50.475 83.1287 51.75C85.4194 51.3727 87.6548 50.8328 89.9039 50.2647C90.5256 50.1078 91.1476 49.9525 91.7698 49.7974C92.1658 49.698 92.5618 49.5986 92.9578 49.499C93.1434 49.4527 93.3291 49.4063 93.5204 49.3585C94.4734 49.122 94.4734 49.122 95.3787 48.75C95.3787 47.5125 95.3787 46.275 95.3787 45C94.6926 45 94.2008 45.0836 93.5417 45.2485ZM99.8787 45.5C99.8787 46.655 99.8787 47.81 99.8787 49C100.784 49.3761 101.691 49.7509 102.597 50.125C102.856 50.2323 103.114 50.3396 103.38 50.4502C103.626 50.5517 103.873 50.6532 104.127 50.7578C104.355 50.8521 104.582 50.9463 104.817 51.0435C105.357 51.2788 105.357 51.2788 105.879 51.25C105.879 50.095 105.879 48.94 105.879 47.75C104.973 47.3739 104.067 46.9991 103.16 46.625C102.902 46.5177 102.644 46.4104 102.378 46.2998C102.131 46.1983 101.885 46.0968 101.631 45.9922C101.403 45.8979 101.175 45.8037 100.94 45.7065C100.4 45.4712 100.4 45.4712 99.8787 45.5ZM91.3787 54.25C91.3787 59.695 91.3787 65.14 91.3787 70.75C92.6987 70.42 94.0187 70.09 95.3787 69.75C95.3787 64.3875 95.3787 59.025 95.3787 53.5C94.025 53.4596 94.025 53.4596 91.3787 54.25ZM99.8787 53.75C99.8787 59.1125 99.8787 64.475 99.8787 70C102.799 71.5294 102.799 71.5294 105.879 72.25C105.879 66.97 105.879 61.69 105.879 56.25C103.591 55.0624 103.591 55.0624 99.8787 53.75ZM47.922 55.8638C47.6597 55.9447 47.3974 56.0257 47.1271 56.1091C46.8356 56.1994 46.5442 56.2898 46.2439 56.3828C45.7725 56.5284 45.301 56.6739 44.8296 56.8194C44.3173 56.9776 43.8051 57.1359 43.2929 57.2942C41.4524 57.863 39.6114 58.4303 37.7703 58.9971C37.4786 59.0869 37.4786 59.0869 37.181 59.1785C32.4886 60.6227 27.7917 62.0519 23.094 63.4784C22.4658 63.6691 21.8377 63.8599 21.2096 64.0508C20.2001 64.3574 19.1907 64.6639 18.1811 64.9703C17.8156 65.0812 17.45 65.1922 17.0845 65.3032C13.2687 66.4617 9.44826 67.6041 5.62866 68.75C5.62866 74.1125 5.62866 79.475 5.62866 85C7.17181 84.7812 7.17181 84.7812 8.61304 84.3594C8.80607 84.292 8.99911 84.2247 9.198 84.1553C9.34012 84.104 9.48224 84.0528 9.62866 84C9.631 83.725 9.63334 83.4501 9.63574 83.1668C9.64572 82.1454 9.66216 81.1242 9.68054 80.1029C9.68759 79.6611 9.6929 79.2193 9.69641 78.7775C9.70177 78.1418 9.71343 77.5066 9.72632 76.8711C9.72663 76.6739 9.72693 76.4768 9.72725 76.2736C9.74903 75.4556 9.80392 74.8678 10.2469 74.1697C11.156 73.5657 12.1058 73.2497 13.1394 72.9131C13.3602 72.8386 13.5809 72.7641 13.8084 72.6874C14.5132 72.4502 15.2193 72.2173 15.9255 71.9844C16.3958 71.8269 16.8661 71.6692 17.3362 71.5112C18.4033 71.1533 19.4711 70.7976 20.5402 70.4457C20.9431 70.3117 21.3451 70.1752 21.7464 70.0366C22.0431 69.9346 22.0431 69.9346 22.3458 69.8306C22.5216 69.7694 22.6975 69.7081 22.8787 69.645C23.9081 69.3465 24.7701 69.3113 25.7224 69.8125C26.5448 70.6982 26.4234 71.8298 26.4578 72.9883C26.4656 73.2359 26.4656 73.2359 26.4735 73.4885C26.4898 74.0131 26.5046 74.5378 26.5193 75.0625C26.5301 75.4193 26.541 75.7761 26.552 76.1328C26.5787 77.0052 26.604 77.8776 26.6287 78.75C27.1131 78.6306 27.5975 78.5107 28.0818 78.3906C28.3515 78.3239 28.6213 78.2572 28.8992 78.1885C29.3972 78.0598 29.8907 77.9127 30.3787 77.75C30.3836 77.5004 30.3886 77.2507 30.3937 76.9935C30.4128 76.0626 30.4349 75.1317 30.458 74.2008C30.4675 73.7988 30.4763 73.3968 30.4841 72.9948C30.4956 72.4151 30.5101 71.8355 30.5251 71.2559C30.528 71.0777 30.5309 70.8995 30.5339 70.7159C30.5653 69.6406 30.625 68.7091 31.1287 67.75C31.7359 67.4161 32.221 67.2092 32.8708 67.0059C33.0477 66.9453 33.2246 66.8847 33.4068 66.8222C33.7852 66.6931 34.1644 66.5666 34.5443 66.4424C35.1217 66.2523 35.6951 66.0533 36.2683 65.8508C37.2316 65.5113 38.1978 65.1811 39.1658 64.8551C39.5617 64.7212 39.9572 64.5859 40.3523 64.4493C40.9356 64.2478 41.5202 64.0502 42.1052 63.8535C42.2792 63.7926 42.4532 63.7317 42.6325 63.6689C44.0099 63.2138 45.3517 62.9291 46.7441 63.5042C47.327 64.2557 47.2795 65.0194 47.281 65.9326C47.2851 66.1202 47.2893 66.3078 47.2935 66.5011C47.3057 67.0997 47.311 67.6982 47.3162 68.2969C47.3232 68.703 47.3307 69.1091 47.3386 69.5151C47.3571 70.5101 47.3695 71.5049 47.3787 72.5C48.0387 72.335 48.6987 72.17 49.3787 72C49.3787 66.555 49.3787 61.11 49.3787 55.5C48.8824 55.5 48.3905 55.7188 47.922 55.8638ZM84.8474 55.8594C84.5786 55.9261 84.3099 55.9928 84.033 56.0615C83.4023 56.1861 83.4023 56.1861 83.1287 56.5C83.1051 57.0062 83.0993 57.5133 83.1003 58.0201C83.1003 58.3454 83.1003 58.6707 83.1003 59.0059C83.1016 59.3636 83.1029 59.7214 83.1042 60.0791C83.1047 60.4431 83.1051 60.807 83.1053 61.171C83.1063 62.1307 83.1087 63.0904 83.1115 64.05C83.1141 65.0286 83.1152 66.0072 83.1165 66.9858C83.1191 68.9072 83.1235 70.8286 83.1287 72.75C84.4487 72.42 85.7687 72.09 87.1287 71.75C87.1287 66.3875 87.1287 61.025 87.1287 55.5C86.3074 55.5 85.6432 55.659 84.8474 55.8594ZM40.948 68.7881C40.7828 68.843 40.6177 68.8979 40.4475 68.9544C40.0983 69.0707 39.7493 69.1874 39.4003 69.3044C38.8647 69.4838 38.3285 69.6617 37.7922 69.8394C37.4535 69.9524 37.1148 70.0655 36.7761 70.1787C36.4664 70.2821 36.1567 70.3856 35.8376 70.4921C35.1622 70.6812 35.1622 70.6812 34.8787 71C34.8569 71.3904 34.8519 71.7818 34.8542 72.1729C34.8551 72.4089 34.8559 72.645 34.8567 72.8882C34.8588 73.1365 34.8609 73.3848 34.863 73.6406C34.8642 73.8899 34.8653 74.1392 34.8665 74.396C34.8694 75.014 34.8735 75.632 34.8787 76.25C37.6998 75.6162 40.3915 74.6799 43.1287 73.75C43.1287 71.935 43.1287 70.12 43.1287 68.25C42.3503 68.25 41.6845 68.543 40.948 68.7881ZM96.1539 73.9795C95.9538 74.0295 95.7536 74.0796 95.5474 74.1312C95.3312 74.1859 95.115 74.2405 94.8923 74.2969C94.6711 74.3524 94.4498 74.4079 94.2219 74.465C93.5136 74.6428 92.8055 74.8214 92.0974 75C91.6179 75.1205 91.1384 75.2409 90.6589 75.3613C89.482 75.6569 88.3053 75.9533 87.1287 76.25C87.9888 76.98 88.9392 77.3712 89.9773 77.7793C90.1604 77.8528 90.3435 77.9262 90.5321 78.0019C91.1315 78.2422 91.7316 78.4804 92.3318 78.7188C93.169 79.0535 94.0058 79.3894 94.8425 79.7256C95.0541 79.8105 95.2656 79.8953 95.4836 79.9828C96.8907 80.5489 98.2916 81.1283 99.6882 81.7197C99.9573 81.8336 99.9573 81.8336 100.232 81.9497C101.081 82.3094 101.929 82.671 102.776 83.0345C103.076 83.162 103.376 83.2895 103.685 83.4209C103.947 83.5332 104.209 83.6455 104.479 83.7612C105.131 84.0431 105.131 84.0431 105.879 84C105.879 81.69 105.879 79.38 105.879 77C104.713 76.5364 103.548 76.0732 102.381 75.6115C101.984 75.4541 101.588 75.2965 101.191 75.1386C100.622 74.9119 100.052 74.6863 99.4822 74.4609C99.3043 74.3899 99.1264 74.3188 98.9432 74.2455C97.8458 73.8131 97.2775 73.6968 96.1539 73.9795ZM20.1042 75.1016C19.927 75.1626 19.7498 75.2236 19.5672 75.2865C18.999 75.4823 18.431 75.6787 17.863 75.875C17.4788 76.0075 17.0945 76.14 16.7102 76.2725C15.7662 76.5978 14.8224 76.9239 13.8787 77.25C13.8787 78.9825 13.8787 80.715 13.8787 82.5C15.0965 82.326 16.0735 82.1479 17.2214 81.7881C17.6529 81.6539 17.6529 81.6539 18.093 81.5171C18.5361 81.3771 18.5361 81.3771 18.988 81.2344C19.2902 81.1401 19.5923 81.0459 19.9036 80.9487C20.6456 80.717 21.3872 80.4837 22.1287 80.25C22.1287 78.3525 22.1287 76.455 22.1287 74.5C21.4637 74.5 20.7349 74.8832 20.1042 75.1016ZM49.1082 76.4216C48.8029 76.5149 48.4977 76.6083 48.1832 76.7045C47.8473 76.8092 47.5114 76.9138 47.1755 77.0186C46.8209 77.1277 46.4662 77.2367 46.1114 77.3455C45.3493 77.5797 44.5876 77.8149 43.826 78.051C42.6198 78.4249 41.4129 78.7964 40.2059 79.1675C38.9519 79.5532 37.6979 79.9389 36.4442 80.3255C32.4143 81.5679 28.3804 82.7967 24.3455 84.0228C23.2655 84.351 22.1856 84.6795 21.1057 85.008C20.7634 85.1121 20.4211 85.2163 20.0788 85.3204C19.9128 85.3709 19.7469 85.4214 19.5759 85.4734C18.7774 85.7163 17.9788 85.9592 17.1803 86.202C14.663 86.9676 12.1458 87.7338 9.62866 88.5C10.5071 89.2252 11.4839 89.7023 12.5037 90.1934C12.6884 90.2833 12.873 90.3732 13.0633 90.4658C13.6679 90.7596 14.2732 91.0517 14.8787 91.3438C15.3026 91.5492 15.7266 91.7547 16.1505 91.9601C18.7849 93.2346 21.4271 94.4895 24.0945 95.6936C25.7119 96.4312 27.2959 97.2097 28.8697 98.0356C29.8323 98.5398 30.7992 99.0356 31.7662 99.5315C32.243 99.779 32.7177 100.031 33.1901 100.287C35.7197 101.76 35.7197 101.76 38.5289 102.179C39.3776 101.863 40.1004 101.462 40.8787 101C41.3475 100.781 41.8215 100.578 42.2979 100.376C42.816 100.156 43.3296 99.9279 43.8428 99.6968C45.0098 99.1722 46.178 98.6503 47.3464 98.1289C47.5532 98.0366 47.7599 97.9442 47.9729 97.8491C50.2967 96.8118 52.6263 95.7879 54.9568 94.7656C55.2746 94.6262 55.2746 94.6262 55.5989 94.4839C59.2423 92.8854 62.8889 91.2943 66.5377 89.7081C67.4616 89.3063 68.3848 88.903 69.3078 88.499C69.9216 88.2313 70.5364 87.9659 71.1512 87.7004C71.5659 87.5198 71.9806 87.339 72.3953 87.1582C72.5904 87.0746 72.7855 86.991 72.9866 86.9048C73.9824 86.5318 73.9824 86.5318 74.6287 85.75C70.215 83.8264 65.7987 81.909 61.3787 80C61.1177 79.8873 60.8568 79.7745 60.5879 79.6584C59.222 79.0688 57.8551 78.4819 56.4861 77.8995C56.0829 77.7277 55.68 77.555 55.2775 77.3816C54.7235 77.1432 54.1685 76.9076 53.613 76.6729C53.4537 76.6036 53.2944 76.5344 53.1303 76.463C51.6347 75.8384 50.6353 75.9497 49.1082 76.4216ZM78.1482 89.2168C77.9783 89.2933 77.8083 89.3697 77.6332 89.4485C77.2633 89.6153 76.8939 89.7831 76.5249 89.9518C75.7229 90.3186 74.9185 90.6801 74.1143 91.0421C73.6881 91.234 73.262 91.4262 72.836 91.6187C70.4984 92.6745 68.15 93.7053 65.8005 94.7344C65.37 94.9232 64.9395 95.112 64.509 95.3008C57.4736 98.3858 50.4292 101.45 43.3787 104.5C44.3598 105.64 45.8348 106.187 47.1592 106.843C47.4919 107.01 47.8231 107.179 48.1526 107.352C48.6315 107.604 49.1144 107.845 49.5994 108.084C49.8865 108.23 50.1737 108.376 50.4696 108.526C51.7327 108.837 52.4615 108.502 53.6287 108C53.9462 107.871 53.9462 107.871 54.2702 107.739C54.9898 107.442 55.7043 107.135 56.4187 106.825C56.6882 106.709 56.9578 106.594 57.2355 106.474C58.1221 106.093 59.0082 105.711 59.8943 105.328C60.5178 105.06 61.1413 104.792 61.765 104.524C62.9001 104.035 64.0351 103.547 65.1699 103.058C68.1445 101.777 71.121 100.501 74.0978 99.2252C74.6898 98.9715 75.2818 98.7178 75.8738 98.464C80.5373 96.4648 85.2046 94.4745 89.8787 92.5C89.2104 91.8317 88.4257 91.5498 87.5691 91.1856C87.2999 91.0701 87.2999 91.0701 87.0253 90.9523C86.6454 90.7899 86.2653 90.6281 85.8848 90.4669C85.3043 90.2204 84.7255 89.9702 84.1467 89.7197C83.7772 89.5623 83.4076 89.405 83.0378 89.2481C82.8654 89.1731 82.693 89.0981 82.5153 89.0208C80.7675 88.2888 79.8282 88.4377 78.1482 89.2168ZM5.62866 91.75C5.62866 94.3075 5.62866 96.865 5.62866 99.5C7.04405 100.15 7.04405 100.15 8.48804 100.813C11.5978 102.249 14.6782 103.742 17.7537 105.25C20.6162 106.654 23.4805 108.046 26.3787 109.375C29.2769 110.704 32.1411 112.097 35.0037 113.5C39.7596 115.831 44.538 118.099 49.3787 120.25C49.3787 117.693 49.3787 115.135 49.3787 112.5C46.0451 110.886 42.7122 109.281 39.3474 107.734C36.1508 106.262 32.9909 104.719 29.8312 103.17C26.9161 101.742 23.9921 100.342 21.0408 98.9897C18.0024 97.5906 15.0025 96.1125 12.0026 94.6332C11.6045 94.4378 11.2064 94.2423 10.8083 94.0469C10.6328 93.9598 10.4573 93.8726 10.2764 93.7829C8.74706 93.0331 7.21133 92.4095 5.62866 91.75ZM92.0832 96.1826C91.8576 96.2786 91.6319 96.3746 91.3995 96.4735C91.1499 96.5802 90.9004 96.6869 90.6433 96.7969C90.2517 96.9638 90.2517 96.9638 89.8521 97.134C88.9806 97.5056 88.1093 97.8778 87.238 98.25C86.7812 98.4449 86.3244 98.6398 85.8675 98.8346C81.1253 100.857 76.3865 102.888 71.6485 104.92C65.7303 107.459 59.8057 109.982 53.8787 112.5C53.8787 115.058 53.8787 117.615 53.8787 120.25C55.6906 119.653 55.6906 119.653 57.4471 118.959C57.6826 118.858 57.918 118.757 58.1606 118.653C58.4108 118.545 58.661 118.437 58.9187 118.325C59.1882 118.209 59.4577 118.094 59.7354 117.974C60.622 117.593 61.5082 117.211 62.3943 116.828C63.0185 116.559 63.6428 116.291 64.2672 116.022C65.2385 115.605 66.2098 115.187 67.1808 114.769C69.4 113.813 71.6203 112.86 73.8416 111.909C74.141 111.781 74.4405 111.653 74.749 111.521C75.3462 111.265 75.9435 111.009 76.5407 110.754C82.1589 108.349 87.7718 105.932 93.3787 103.5C93.3787 100.943 93.3787 98.385 93.3787 95.75C92.9184 95.75 92.5003 96.0047 92.0832 96.1826Z" fill="black"/>
<path d="M46.6286 17.25C47.136 17.656 47.3539 17.868 47.4751 18.5144C47.4764 18.713 47.4776 18.9116 47.4789 19.1163C47.4821 19.3448 47.4853 19.5733 47.4886 19.8087C47.4883 20.0589 47.4879 20.309 47.4876 20.5668C47.4901 20.8307 47.4926 21.0945 47.4952 21.3664C47.5024 22.2411 47.5038 23.1156 47.5046 23.9902C47.507 24.5971 47.5095 25.204 47.5122 25.8109C47.5167 27.0841 47.5181 28.3572 47.5176 29.6304C47.5175 31.2628 47.5278 32.895 47.5407 34.5273C47.549 35.7811 47.5506 37.0348 47.5502 38.2886C47.551 38.8905 47.5544 39.4923 47.5602 40.0942C47.5675 40.9358 47.5654 41.7769 47.5608 42.6185C47.5672 42.9922 47.5672 42.9922 47.5736 43.3735C47.5585 44.478 47.5201 45.0633 46.8416 45.9589C45.483 46.8609 43.8285 47.2853 42.2898 47.7894C41.9224 47.9124 41.5552 48.0358 41.188 48.1594C40.1943 48.493 39.1991 48.8224 38.2036 49.1509C37.1606 49.4957 36.1187 49.844 35.0767 50.1918C33.3273 50.7752 31.577 51.3559 29.8261 51.9349C27.8031 52.6039 25.7814 53.277 23.7604 53.9522C21.8141 54.6024 19.8669 55.25 17.9194 55.8964C17.0914 56.1712 16.2637 56.4469 15.4362 56.7233C14.4618 57.0485 13.4867 57.3716 12.5109 57.6928C12.1533 57.811 11.7959 57.9299 11.4388 58.0496C10.9507 58.2131 10.4618 58.3738 9.97257 58.5339C9.69937 58.6244 9.42616 58.715 9.14467 58.8083C8.34674 59.008 7.69746 59.0689 6.87864 59C6.20366 58.55 5.74317 58.2291 5.37864 57.5C5.35308 57.1449 5.3427 56.7887 5.34016 56.4328C5.33801 56.2088 5.33586 55.9848 5.33365 55.7541C5.33258 55.5077 5.33152 55.2613 5.33042 55.0075C5.32838 54.7485 5.32633 54.4896 5.32423 54.2227C5.31801 53.363 5.31388 52.5033 5.31028 51.6436C5.30895 51.3505 5.30762 51.0574 5.30625 50.7554C5.29956 49.2043 5.29472 47.6532 5.29111 46.1021C5.28695 44.498 5.27576 42.8941 5.26302 41.2901C5.25462 40.0584 5.25172 38.8267 5.25031 37.595C5.24863 37.0036 5.24481 36.4122 5.23883 35.8209C5.23095 34.9937 5.23091 34.1668 5.23277 33.3395C5.22661 32.9723 5.22661 32.9723 5.22034 32.5976C5.23086 31.4535 5.24746 30.9231 5.95549 29.9886C6.5005 29.593 6.91349 29.3012 7.54484 29.0923C7.71649 29.0335 7.88814 28.9747 8.065 28.9141C8.24939 28.8551 8.43378 28.7961 8.62376 28.7354C8.82077 28.669 9.01777 28.6027 9.22075 28.5343C9.87122 28.3162 10.5233 28.1034 11.1755 27.8906C11.6368 27.7372 12.0979 27.5833 12.5589 27.4292C13.5195 27.1087 14.4808 26.7904 15.4427 26.4738C16.8016 26.0262 18.1583 25.5722 19.5144 25.1162C24.4661 23.4533 29.429 21.8257 34.3977 20.2142C37.0815 19.3434 39.7621 18.4647 42.433 17.5548C45.3408 16.5722 45.3408 16.5722 46.6286 17.25ZM41.0658 22.6564C40.7938 22.7465 40.5217 22.8366 40.2415 22.9294C39.943 23.0296 39.6445 23.1297 39.337 23.2328C39.0196 23.3384 38.7022 23.4439 38.3847 23.5494C37.5223 23.836 36.6604 24.1241 35.7986 24.4125C34.8978 24.7137 33.9965 25.0138 33.0954 25.314C31.5823 25.8183 30.0696 26.3235 28.5571 26.8292C26.8064 27.4145 25.0552 27.9985 23.3037 28.5818C21.6209 29.1423 19.9384 29.7036 18.256 30.2653C17.539 30.5047 16.8219 30.7438 16.1047 30.9827C15.2611 31.2638 14.4178 31.5455 13.5746 31.8279C13.1159 31.9813 12.657 32.134 12.198 32.2867C11.9274 32.3775 11.6568 32.4683 11.378 32.5618C11.1414 32.6409 10.9048 32.7199 10.661 32.8014C10.1404 32.9536 10.1404 32.9536 9.87864 33.25C9.85488 33.8814 9.84725 34.5058 9.85026 35.1373C9.85022 35.3348 9.85018 35.5324 9.85015 35.7359C9.85032 36.392 9.85227 37.048 9.85423 37.7041C9.85469 38.1578 9.85505 38.6114 9.8553 39.0651C9.85625 40.2615 9.85871 41.4579 9.86147 42.6543C9.86403 43.8742 9.86517 45.0941 9.86643 46.314C9.86912 48.7093 9.87339 51.1047 9.87864 53.5C11.7044 53.1323 13.4384 52.5985 15.2029 52.0063C15.5027 51.9066 15.8026 51.807 16.1115 51.7043C16.9273 51.4332 17.7426 51.1606 18.5579 50.8878C19.4127 50.6019 20.2678 50.3172 21.123 50.0323C22.5564 49.5546 23.9895 49.0759 25.4225 48.5967C27.0804 48.0423 28.7387 47.4893 30.3973 46.9369C31.9944 46.405 33.5912 45.8723 35.1879 45.3391C35.8673 45.1123 36.5467 44.8857 37.2262 44.6594C38.1722 44.3443 39.1177 44.0279 40.0632 43.7114C40.4879 43.5701 40.4879 43.5701 40.9211 43.426C41.3048 43.2972 41.3048 43.2972 41.6963 43.1658C41.9199 43.0911 42.1435 43.0164 42.3739 42.9394C42.8703 42.7928 42.8703 42.7928 43.1286 42.5C43.1524 41.8686 43.16 41.2442 43.157 40.6127C43.1571 40.3164 43.1571 40.3164 43.1571 40.0141C43.157 39.358 43.155 38.702 43.1531 38.0459C43.1526 37.5922 43.1522 37.1386 43.152 36.6849C43.151 35.4885 43.1486 34.2921 43.1458 33.0957C43.1433 31.8758 43.1421 30.6559 43.1408 29.436C43.1382 27.0407 43.1339 24.6453 43.1286 22.25C42.3318 22.25 41.8194 22.4052 41.0658 22.6564Z" fill="black"/>
<path d="M35.1287 30C36.061 30.4662 36.5951 30.8773 37.3318 31.5938C37.6358 31.8828 37.6358 31.8828 37.946 32.1777C38.3787 32.75 38.3787 32.75 38.3274 33.2333C38.0978 33.8303 37.8334 34.1388 37.3818 34.59C37.1464 34.8277 37.1464 34.8277 36.9063 35.0702C36.7357 35.2385 36.5651 35.4067 36.3894 35.5801C36.2146 35.755 36.0397 35.93 35.8596 36.1103C35.4895 36.4797 35.1186 36.8483 34.7468 37.2159C34.1782 37.7787 33.6129 38.3446 33.0481 38.9111C32.6881 39.2697 32.3279 39.6281 31.9675 39.9863C31.7985 40.1556 31.6294 40.3249 31.4553 40.4993C31.296 40.6562 31.1367 40.8131 30.9726 40.9747C30.8335 41.1127 30.6943 41.2507 30.5509 41.3929C29.7903 42.0361 29.3056 42.2533 28.3005 42.2344C27.0635 42.0477 25.8919 41.6093 24.7206 41.1821C23.8144 40.8592 23.0878 40.6589 22.1287 40.75C21.5414 41.0403 21.5414 41.0403 20.9851 41.4609C20.7771 41.6076 20.5691 41.7542 20.3547 41.9053C20.034 42.1378 20.034 42.1378 19.7068 42.375C19.2794 42.6807 18.8514 42.9854 18.4226 43.2891C18.2342 43.4252 18.0458 43.5614 17.8516 43.7017C17.3787 44 17.3787 44 16.8787 44C16.4713 43.4235 16.0928 42.8495 15.7224 42.25C15.6174 42.0831 15.5123 41.9161 15.4041 41.7441C15.144 41.3304 14.8861 40.9153 14.6287 40.5C15.7325 39.2689 17.0362 38.4451 18.4255 37.5625C18.6542 37.4152 18.8828 37.2679 19.1184 37.1162C21.2462 35.75 21.2462 35.75 23.1287 35.75C24.6962 36.245 26.2637 36.74 27.8787 37.25C30.2712 34.8575 32.6637 32.465 35.1287 30Z" fill="black"/>
</g>
<defs>
<clipPath id="clip0_227_106">
<rect width="128" height="128" fill="white" transform="translate(0.628662)"/>
</clipPath>
</defs>
</svg>
