<svg width="36" height="36" viewBox="0 0 128 128" fill="none" xmlns="http://www.w3.org/2000/svg">
<g clip-path="url(#clip0_227_110)">
<path d="M7.284 28.0144C7.85377 28.0113 7.85377 28.0113 8.43504 28.0082C9.70865 28.0029 10.982 28.0071 12.2557 28.0112C13.1684 28.0102 14.0811 28.0071 14.9939 28.0042C17.2161 27.9983 19.4383 27.9996 21.6605 28.0034C23.4667 28.0064 25.2728 28.0068 27.0789 28.0054C27.4645 28.0051 27.4645 28.0051 27.858 28.0048C28.3803 28.0043 28.9026 28.0039 29.4249 28.0035C34.3221 27.9997 39.2192 28.004 44.1163 28.0111C48.3179 28.017 52.5194 28.016 56.7209 28.0099C61.6006 28.0029 66.4803 28.0001 71.36 28.0041C71.8804 28.0046 72.4007 28.005 72.9211 28.0054C73.3052 28.0057 73.3052 28.0057 73.697 28.006C75.5008 28.0071 77.3047 28.0052 79.1085 28.0021C81.307 27.9984 83.5054 27.9994 85.7038 28.0064C86.8255 28.0099 87.9469 28.0106 89.0685 28.0069C90.2845 28.0033 91.5001 28.0078 92.716 28.0144C93.0704 28.0115 93.4249 28.0085 93.79 28.0055C95.7376 28.026 96.9819 28.1436 98.4783 29.5017C100.122 31.2592 100.004 32.971 99.9854 35.238C99.9886 35.8083 99.9886 35.8083 99.9918 36.3902C99.9962 37.4427 99.9946 38.4951 99.9904 39.5476C99.9874 40.6838 99.9921 41.82 99.9958 42.9561C100.002 45.1808 100 47.4054 99.9965 49.6301C99.9935 51.4382 99.9931 53.2462 99.9946 55.0543C99.9948 55.3117 99.995 55.5691 99.9952 55.8343C99.9956 56.3571 99.996 56.88 99.9965 57.4028C100 62.3052 99.9959 67.2076 99.9887 72.1099C99.9827 76.3161 99.9838 80.5221 99.99 84.7283C99.9971 89.6131 99.9999 94.498 99.9958 99.3829C99.9954 99.9038 99.995 100.425 99.9946 100.946C99.9943 101.33 99.9942 101.33 99.9939 101.722C99.9928 103.528 99.9947 105.334 99.9979 107.14C100.002 109.341 100.001 111.541 99.9935 113.742C99.99 114.865 99.9886 115.988 99.993 117.111C99.9967 118.328 99.9921 119.545 99.9854 120.762C99.9899 121.294 99.9899 121.294 99.9945 121.837C99.9738 123.77 99.8658 125.015 98.4783 126.498C96.7045 128.108 95.0012 128.005 92.716 127.986C92.1462 127.989 92.1462 127.989 91.565 127.992C90.2914 127.997 89.018 127.993 87.7444 127.989C86.8316 127.99 85.9189 127.993 85.0061 127.996C82.7839 128.002 80.5617 128 78.3395 127.997C76.5334 127.994 74.7272 127.993 72.9211 127.995C72.664 127.995 72.4069 127.995 72.142 127.995C71.6197 127.996 71.0974 127.996 70.5751 127.997C65.6779 128 60.7808 127.996 55.8837 127.989C51.6821 127.983 47.4806 127.984 43.2791 127.99C38.3994 127.997 33.5197 128 28.64 127.996C28.1197 127.995 27.5993 127.995 27.0789 127.995C26.6948 127.994 26.6948 127.994 26.303 127.994C24.4992 127.993 22.6953 127.995 20.8915 127.998C18.693 128.002 16.4946 128.001 14.2962 127.994C13.1746 127.99 12.0531 127.989 10.9315 127.993C9.71556 127.997 8.49992 127.992 7.284 127.986C6.75236 127.99 6.75236 127.99 6.20997 127.995C4.26243 127.974 3.01811 127.856 1.52174 126.498C-0.122456 124.741 -0.00446555 123.029 0.0145911 120.762C0.0125048 120.382 0.0104185 120.002 0.00826901 119.61C0.00386289 118.557 0.00544135 117.505 0.00958775 116.452C0.0126158 115.316 0.00794235 114.18 0.0042656 113.044C-0.00167984 110.819 -0.000397242 108.595 0.00347997 106.37C0.00650064 104.562 0.00690971 102.754 0.00545425 100.946C0.00524933 100.688 0.00504427 100.431 0.00483314 100.166C0.00440556 99.6429 0.00397241 99.12 0.00353289 98.5972C-0.000280222 93.6948 0.00410339 88.7925 0.0112897 83.8901C0.0172646 79.684 0.0162266 75.4779 0.0100609 71.2717C0.00290356 66.3869 8.66265e-05 61.502 0.0041929 56.6171C0.00461891 56.0962 0.00503948 55.5753 0.00545425 55.0543C0.00576373 54.6699 0.00576346 54.6699 0.00607919 54.2777C0.00723369 52.4718 0.00528552 50.666 0.00213827 48.8602C-0.0016131 46.6593 -0.000596402 44.4586 0.00652557 42.2577C0.0100394 41.1349 0.0114182 40.0122 0.00699491 38.8893C0.00335032 37.6721 0.00791237 36.4552 0.0145911 35.238C0.0116078 34.8831 0.00862479 34.5282 0.00555118 34.1626C0.0261751 32.2299 0.134238 30.9848 1.52174 29.5017C3.29552 27.8918 4.99883 27.9954 7.284 28.0144ZM5.53374 33.4607C5.53374 62.8566 5.53374 92.2526 5.53374 122.539C34.8815 122.539 64.2292 122.539 94.4663 122.539C94.4663 93.1434 94.4663 63.7474 94.4663 33.4607C65.1185 33.4607 35.7708 33.4607 5.53374 33.4607Z" fill="black"/>
<path d="M13.3036 0.178461C14.146 0.547982 14.146 0.547982 14.6514 1.16385C14.9216 2.51245 14.722 3.19288 13.6551 4.31632C13.2285 4.7267 12.7952 5.13338 12.3559 5.53651C12.1394 5.7426 11.9229 5.94869 11.6998 6.16103C11.2967 6.54398 10.891 6.92548 10.4819 7.30496C9.95258 7.79799 9.4376 8.29919 8.92322 8.8006C35.9436 8.8006 62.9639 8.8006 90.8031 8.8006C88.2903 6.4481 88.2903 6.4481 85.6856 4.1508C84.9458 3.45261 84.5775 2.96021 84.5062 2.07225C84.7379 1.16385 84.7379 1.16385 85.2223 0.547982C86.3056 0.0843448 87.0749 -0.0390962 88.3259 0.0100602C89.9806 0.361722 90.8222 1.4253 91.8139 2.39558C92.0962 2.65801 92.3797 2.91972 92.6642 3.18081C93.2885 3.7549 93.9075 4.33172 94.5227 4.91102C95.7576 6.07108 97.0202 7.21485 98.2848 8.35759C99.5055 9.46646 100.03 10.0346 99.9987 11.4902C99.8361 12.3423 99.2333 12.8314 98.4898 13.4812C98.3409 13.6143 98.192 13.7475 98.0385 13.8847C97.7143 14.1738 97.3872 14.4613 97.0576 14.7472C96.5061 15.2275 95.9656 15.7136 95.427 16.2016C94.6826 16.8759 93.9357 17.5487 93.1854 18.2195C92.0874 19.2022 91.0036 20.1928 89.9238 21.1863C89.1904 21.8505 89.1904 21.8505 88.4694 21.9157C86.3362 21.9642 86.3362 21.9642 85.2223 21.4875C84.5445 20.6258 84.4787 19.8585 84.7379 18.9008C85.3092 18.1567 86.0445 17.5475 86.8228 16.9147C87.2143 16.5837 87.6053 16.2524 87.9956 15.9206C88.2576 15.7053 88.2576 15.7053 88.5249 15.4856C89.3369 14.7654 90.0611 13.9943 90.8031 13.2348C63.7827 13.2348 36.7624 13.2348 8.92322 13.2348C10.7023 14.942 12.4815 16.6492 14.3145 18.4081C14.855 19.1985 14.8114 20.0142 14.6514 20.8716C14.146 21.4875 14.146 21.4875 13.3036 21.857C11.4779 22.0477 11.4779 22.0477 10.608 21.857C8.91602 20.8155 7.65715 19.4626 6.33289 18.1772C6.09595 17.9472 5.85901 17.7172 5.61489 17.4803C5.14042 17.0188 4.66662 16.5568 4.19353 16.0945C3.61269 15.5304 3.0237 14.9717 2.43028 14.4146C2.12327 14.1191 1.81656 13.8233 1.51023 13.5274C1.24615 13.2768 0.982059 13.0263 0.709969 12.7681C0.0307486 11.8191 -0.181898 11.0667 0.162418 10.0323C0.723218 9.24173 1.44554 8.57052 2.2052 7.8768C2.63566 7.46818 3.06606 7.05952 3.49642 6.65084C3.72212 6.4399 3.94782 6.22897 4.18037 6.01164C4.89808 5.33447 5.59839 4.64925 6.29472 3.96027C6.52295 3.73473 6.75117 3.50918 6.98631 3.2768C7.42991 2.83826 7.87332 2.39962 8.31653 1.96087C8.51847 1.76327 8.72042 1.56567 8.92849 1.36208C9.10668 1.18675 9.28488 1.01142 9.46847 0.830775C10.4709 -0.0432348 11.8548 0.0340162 13.3036 0.178461Z" fill="black"/>
<path d="M118.003 28.0862C118.758 28.6694 118.758 28.6694 119.481 29.4974C119.614 29.6464 119.748 29.7953 119.885 29.9488C120.174 30.2731 120.461 30.6002 120.747 30.9298C121.228 31.4814 121.714 32.022 122.202 32.5607C122.876 33.3051 123.549 34.0522 124.22 34.8025C125.202 35.9006 126.193 36.9846 127.186 38.0645C127.85 38.798 127.85 38.798 127.916 39.5191C127.964 41.6526 127.964 41.6526 127.487 42.7667C126.626 43.4445 125.859 43.5103 124.901 43.2511C124.157 42.6797 123.547 41.9443 122.915 41.166C122.584 40.7743 122.252 40.3834 121.921 39.993C121.777 39.8183 121.633 39.6436 121.486 39.4636C120.765 38.6515 119.994 37.9273 119.235 37.1852C119.235 64.209 119.235 91.2329 119.235 119.076C120.942 117.296 122.649 115.517 124.408 113.684C125.199 113.143 126.014 113.187 126.872 113.347C127.487 113.852 127.487 113.852 127.857 114.695C128.048 116.521 128.048 116.521 127.857 117.391C126.816 119.083 125.463 120.342 124.177 121.666C123.947 121.903 123.717 122.14 123.48 122.384C123.019 122.859 122.557 123.333 122.095 123.806C121.53 124.387 120.972 124.976 120.415 125.569C120.119 125.876 119.823 126.183 119.527 126.49C119.277 126.754 119.026 127.018 118.768 127.29C117.819 127.969 117.067 128.182 116.032 127.838C115.242 127.277 114.571 126.554 113.877 125.795C113.468 125.364 113.06 124.934 112.651 124.503C112.44 124.277 112.229 124.052 112.012 123.819C111.334 123.101 110.649 122.401 109.96 121.704C109.622 121.362 109.622 121.362 109.277 121.013C108.838 120.569 108.4 120.126 107.961 119.682C107.763 119.48 107.566 119.278 107.362 119.07C107.187 118.892 107.011 118.714 106.831 118.53C106.425 118.065 106.425 118.065 106.178 117.391C106.038 115.014 106.038 115.014 106.548 113.852C107.416 113.14 108.163 113.071 109.135 113.347C110.008 113.988 110.763 114.799 111.537 115.642C111.743 115.859 111.949 116.076 112.161 116.299C112.544 116.702 112.925 117.108 113.305 117.517C113.798 118.046 114.299 118.561 114.801 119.076C114.801 92.0518 114.801 65.0279 114.801 37.1852C112.448 39.6983 112.448 39.6983 110.151 42.3033C109.453 43.0432 108.96 43.4115 108.072 43.4828C107.164 43.2511 107.164 43.2511 106.548 42.7667C106.084 41.6832 105.961 40.9138 106.01 39.6626C106.362 38.0076 107.425 37.1664 108.396 36.1742C108.661 35.888 108.926 35.6005 109.189 35.3119C109.916 34.5202 110.648 33.7391 111.382 32.9602C111.858 32.4526 112.333 31.9418 112.807 31.4299C112.963 31.2615 113.119 31.093 113.28 30.9195C113.579 30.5963 113.878 30.2728 114.177 29.9492C115.467 28.5599 116.315 27.7189 118.003 28.0862Z" fill="black"/>
</g>
<defs>
<clipPath id="clip0_227_110">
<rect width="128" height="128" fill="white"/>
</clipPath>
</defs>
</svg>
