<svg width="36" height="36" viewBox="0 0 128 128" fill="none" xmlns="http://www.w3.org/2000/svg">
<g clip-path="url(#clip0_227_78)">
<path d="M27.6668 -0.09508C27.8379 -0.096245 28.009 -0.09741 28.1853 -0.0986102C28.7628 -0.101616 29.3402 -0.0992421 29.9178 -0.0969208C30.3343 -0.0979633 30.7509 -0.0993322 31.1674 -0.101001C32.3154 -0.104631 33.4633 -0.103548 34.6112 -0.101709C35.8479 -0.100531 37.0847 -0.10365 38.3214 -0.106213C40.7455 -0.110521 43.1696 -0.110718 45.5938 -0.10941C47.5634 -0.108401 49.533 -0.108759 51.5026 -0.110097C51.9225 -0.110378 51.9225 -0.110378 52.3508 -0.110664C52.9194 -0.111047 53.488 -0.111432 54.0566 -0.111818C59.3933 -0.115253 64.73 -0.113887 70.0667 -0.111022C74.9531 -0.108538 79.8394 -0.111774 84.7258 -0.117755C89.7385 -0.123845 94.7513 -0.126257 99.7641 -0.124592C102.58 -0.123717 105.396 -0.124288 108.212 -0.128655C110.61 -0.132326 113.007 -0.132507 115.404 -0.128137C116.628 -0.126001 117.852 -0.125493 119.076 -0.1293C120.195 -0.132739 121.315 -0.131601 122.434 -0.12674C122.84 -0.125793 123.246 -0.126551 123.652 -0.129143C124.202 -0.132407 124.752 -0.129566 125.302 -0.125144C125.608 -0.125117 125.914 -0.12509 126.229 -0.125062C127.155 0.0250662 127.451 0.250222 128 0.999999C128.103 1.70721 128.146 2.31551 128.142 3.02246C128.143 3.21784 128.145 3.41323 128.146 3.61454C128.148 4.02702 128.147 4.43952 128.144 4.85199C128.141 5.48158 128.149 6.11024 128.159 6.73975C128.159 7.14128 128.158 7.54281 128.157 7.94433C128.161 8.13161 128.164 8.31889 128.167 8.51184C128.149 9.51549 128.038 9.95365 127.398 10.7437C126.761 11.2413 126.523 11.4173 125.734 11.3906C124.75 11.25 124.75 11.25 124.141 10.7812C122.638 8.7371 123.5 8.32035 123.5 4.5C103.04 4.5 82.58 4.5 61.5 4.5C61.5 20.67 61.5 36.84 61.5 53.5C74.3609 53.4703 74.3609 53.4703 87.2218 53.4324C89.7077 53.429 89.7077 53.429 90.8709 53.4284C91.6844 53.4277 92.4979 53.4249 93.3113 53.4208C94.3488 53.4157 95.3863 53.4141 96.4237 53.4152C96.8046 53.415 97.1855 53.4135 97.5663 53.4106C98.0808 53.4069 98.5951 53.4078 99.1096 53.4098C99.3979 53.4091 99.6862 53.4084 99.9832 53.4077C101.004 53.5306 101.704 53.8739 102.344 54.6875C102.579 55.5353 102.462 56.1525 102.25 57C101.647 57.7897 101.211 58.0775 100.25 58.25C99.7199 58.2724 99.1892 58.2805 98.6586 58.2801C98.3312 58.2804 98.0038 58.2807 97.6664 58.2811C97.3041 58.2802 96.9417 58.2793 96.5793 58.2784C96.1974 58.2783 95.8155 58.2783 95.4336 58.2785C94.397 58.2786 93.3604 58.2771 92.3238 58.2753C91.2405 58.2738 90.1571 58.2736 89.0737 58.2733C87.0223 58.2726 84.9708 58.2705 82.9194 58.268C80.5839 58.2652 78.2483 58.2638 75.9128 58.2626C71.1085 58.26 66.3043 58.2556 61.5 58.25C61.5025 58.523 61.5025 58.523 61.505 58.8016C61.5201 60.5193 61.5315 62.237 61.5388 63.9547C61.5428 64.8378 61.5481 65.7208 61.5566 66.6038C61.5663 67.6197 61.5699 68.6355 61.5732 69.6514C61.5771 69.9675 61.581 70.2837 61.585 70.6095C61.585 71.0523 61.585 71.0523 61.5851 71.5041C61.5876 71.893 61.5876 71.893 61.5902 72.2897C61.4647 73.2777 61.0989 73.9758 60.3125 74.5937C59.4647 74.8292 58.8475 74.7119 58 74.5C57.2102 73.8973 56.9302 73.4584 56.75 72.5C56.7281 72.1055 56.719 71.7101 56.7192 71.315C56.7187 71.0761 56.7182 70.8372 56.7177 70.5911C56.7184 70.3295 56.7192 70.0678 56.7199 69.7982C56.7197 69.5197 56.7195 69.2411 56.7193 68.9542C56.7189 68.0175 56.7202 67.0809 56.7216 66.1443C56.7217 65.4742 56.7216 64.8041 56.7215 64.134C56.7214 62.6897 56.7221 61.2453 56.7236 59.8009C56.7256 57.7126 56.7262 55.6243 56.7265 53.536C56.7271 50.148 56.7288 46.7599 56.7311 43.3718C56.7334 40.0805 56.7352 36.7891 56.7363 33.4978C56.7363 33.2949 56.7364 33.0921 56.7365 32.8831C56.7368 31.8654 56.7371 30.8478 56.7374 29.8302C56.74 21.3868 56.7446 12.9434 56.75 4.5C47.7575 4.5 38.765 4.5 29.5 4.5C29.5 35.52 29.5 66.54 29.5 98.5C38.4925 98.5 47.485 98.5 56.75 98.5C56.75 95.035 56.75 91.57 56.75 88C57.37 86.45 57.37 86.45 58 86C58.9359 85.7088 59.3853 85.7081 60.3125 86.0469C61 86.5 61 86.5 61.5 87.5C61.5 91.13 61.5 94.76 61.5 98.5C81.96 98.5 102.42 98.5 123.5 98.5C123.5 85.2175 123.5 71.935 123.5 58.25C120.612 58.25 117.725 58.25 114.75 58.25C113.25 57.5 113.25 57.5 112.75 56.75C112.581 54.9771 112.581 54.9771 113.203 54.1406C114.262 53.3843 115.295 53.4672 116.542 53.4756C116.741 53.4759 116.939 53.4763 117.144 53.4767C117.778 53.4781 118.413 53.4812 119.047 53.4844C119.477 53.4856 119.907 53.4868 120.337 53.4878C121.392 53.4905 122.446 53.4949 123.5 53.5C123.499 53.3066 123.499 53.1132 123.498 52.9139C123.481 48.2089 123.469 43.5039 123.461 38.7988C123.457 36.5235 123.452 34.2482 123.443 31.9728C123.436 29.9898 123.431 28.0067 123.429 26.0236C123.428 24.9735 123.426 23.9234 123.421 22.8733C123.416 21.8849 123.414 20.8965 123.415 19.908C123.415 19.5453 123.413 19.1826 123.411 18.8199C123.407 18.3245 123.408 17.8289 123.41 17.3335C123.409 17.0562 123.408 16.779 123.408 16.4934C123.533 15.4863 123.885 14.7866 124.687 14.1562C125.535 13.9208 126.152 14.0381 127 14.25C127.685 14.7783 127.967 15.0694 128.125 15.9293C128.125 16.1919 128.126 16.4545 128.126 16.7251C128.128 17.0286 128.131 17.3322 128.134 17.6449C128.132 17.9823 128.129 18.3196 128.127 18.6569C128.128 19.0149 128.13 19.3728 128.132 19.7308C128.136 20.7157 128.134 21.7006 128.131 22.6855C128.128 23.7472 128.132 24.8089 128.135 25.8706C128.139 27.951 128.138 30.0313 128.135 32.1117C128.133 33.802 128.133 35.4924 128.134 37.1827C128.134 37.4231 128.134 37.6634 128.134 37.911C128.135 38.3992 128.135 38.8874 128.135 39.3756C128.138 43.9563 128.135 48.537 128.129 53.1178C128.125 57.0505 128.126 60.9832 128.13 64.9159C128.136 69.4799 128.138 74.0439 128.135 78.608C128.134 79.0944 128.134 79.5808 128.134 80.0673C128.134 80.4263 128.134 80.4263 128.133 80.7926C128.132 82.4814 128.134 84.1702 128.136 85.8591C128.139 87.9165 128.138 89.9738 128.133 92.0312C128.13 93.0815 128.129 94.1317 128.133 95.1819C128.136 96.1427 128.134 97.1033 128.129 98.064C128.128 98.4122 128.128 98.7605 128.131 99.1087C128.134 99.5808 128.13 100.053 128.126 100.525C128.126 100.788 128.126 101.05 128.125 101.321C127.966 102.184 127.691 102.473 127 103C126.144 103.346 125.247 103.282 124.334 103.282C124.082 103.283 124.082 103.283 123.825 103.283C123.26 103.285 122.695 103.284 122.13 103.283C121.721 103.284 121.313 103.284 120.905 103.285C119.781 103.287 118.657 103.287 117.532 103.286C116.321 103.286 115.109 103.288 113.898 103.289C111.524 103.291 109.15 103.292 106.775 103.292C104.846 103.292 102.917 103.292 100.988 103.293C95.5216 103.295 90.0554 103.297 84.5892 103.296C84.2944 103.296 83.9996 103.296 83.6958 103.296C83.2531 103.296 83.2531 103.296 82.8014 103.296C78.0154 103.296 73.2295 103.299 68.4436 103.302C63.5328 103.306 58.622 103.307 53.7112 103.307C50.9528 103.307 48.1944 103.308 45.436 103.311C43.0878 103.313 40.7397 103.313 38.3915 103.312C37.1929 103.311 35.9943 103.311 34.7957 103.313C33.6991 103.315 32.6026 103.315 31.506 103.312C31.1087 103.312 30.7113 103.312 30.3139 103.314C29.775 103.316 29.2361 103.314 28.6971 103.312C28.2475 103.312 28.2475 103.312 27.7889 103.312C26.8105 103.235 26.086 103.014 25.3125 102.406C24.6163 101.501 24.7185 100.434 24.7178 99.3343C24.7174 99.1664 24.7169 98.9985 24.7165 98.8255C24.7153 98.2602 24.7159 97.695 24.7166 97.1297C24.7161 96.7214 24.7155 96.3131 24.7148 95.9048C24.7133 94.7807 24.7133 93.6566 24.7136 92.5325C24.7137 91.321 24.7123 90.1095 24.7111 88.898C24.709 86.5238 24.7084 84.1496 24.7082 81.7754C24.7081 79.8462 24.7076 77.917 24.7068 75.9878C24.7046 70.5216 24.7034 65.0554 24.7036 59.5892C24.7036 59.2944 24.7036 58.9996 24.7037 58.6959C24.7037 58.4007 24.7037 58.1055 24.7037 57.8014C24.7038 53.0154 24.7014 48.2295 24.6979 43.4436C24.6943 38.5328 24.6926 33.622 24.6928 28.7112C24.6929 25.9528 24.6922 23.1944 24.6895 20.436C24.6872 18.0878 24.6867 15.7397 24.6884 13.3916C24.6892 12.1929 24.6892 10.9943 24.687 9.79571C24.6851 8.69915 24.6854 7.60261 24.6876 6.50605C24.688 6.10868 24.6875 5.71132 24.6861 5.31395C24.6844 4.77498 24.6857 4.2361 24.6878 3.69714C24.6877 3.39741 24.6877 3.09769 24.6876 2.78889C24.7658 1.80019 24.9993 1.12117 25.5521 0.302817C26.2441 -0.165022 26.8388 -0.0943838 27.6668 -0.09508Z" fill="black"/>
<path d="M39.75 109.25C41 110.5 41 110.5 41 116.25C64.43 116.25 87.86 116.25 112 116.25C112 114.352 112 112.455 112 110.5C113.25 109.25 113.25 109.25 114.183 109.09C115.506 109.18 116.489 109.858 117.578 110.562C117.793 110.697 118.009 110.831 118.23 110.969C118.906 111.392 119.578 111.821 120.25 112.25C120.684 112.522 121.118 112.793 121.553 113.064C122.706 113.786 123.857 114.512 125 115.25C125.202 115.38 125.403 115.511 125.611 115.645C125.811 115.776 126.01 115.906 126.216 116.041C126.396 116.159 126.576 116.277 126.762 116.398C127.932 117.242 127.932 117.242 128.135 118.013C128.142 118.199 128.149 118.386 128.156 118.578C128.17 118.763 128.183 118.947 128.197 119.138C127.586 121.036 124.768 122.21 123.172 123.172C122.736 123.436 122.3 123.7 121.864 123.965C121.573 124.141 121.282 124.317 120.992 124.492C120.117 125.022 119.252 125.566 118.394 126.122C118.193 126.251 117.992 126.379 117.785 126.512C117.42 126.746 117.057 126.984 116.696 127.225C115.494 127.988 114.676 128.222 113.25 128C112.838 127.587 112.425 127.175 112 126.75C112 124.852 112 122.955 112 121C88.57 121 65.14 121 41 121C41 122.898 41 124.795 41 126.75C39.75 128 39.75 128 38.8301 128.166C37.4405 128.071 36.3701 127.32 35.2188 126.594C34.8641 126.377 34.8641 126.377 34.5024 126.155C33.7486 125.692 32.9992 125.221 32.25 124.75C31.7432 124.436 31.2364 124.122 30.7295 123.808C30.2412 123.502 29.7533 123.197 29.2656 122.891C29.0395 122.749 28.8134 122.608 28.5804 122.462C25.2428 120.336 25.2428 120.336 24.7344 119.109C24.7541 118.34 24.8637 117.922 25.25 117.25C26.5482 116.049 28.0299 115.159 29.5312 114.234C29.9267 113.99 29.9267 113.99 30.3301 113.741C30.8722 113.407 31.4146 113.073 31.9573 112.74C32.7039 112.278 33.4452 111.809 34.1855 111.338C34.6236 111.064 35.0617 110.79 35.5 110.516C35.6982 110.387 35.8965 110.259 36.1007 110.126C37.3806 109.338 38.2426 108.997 39.75 109.25ZM34.9668 116.352C34.7654 116.476 34.564 116.6 34.3564 116.728C34.146 116.859 33.9356 116.99 33.7188 117.125C33.5064 117.256 33.294 117.387 33.0752 117.522C32.5495 117.847 32.0245 118.173 31.5 118.5C32.4265 119.272 33.3948 119.934 34.4219 120.562C34.5671 120.653 34.7122 120.744 34.8618 120.838C35.6244 121.341 35.6244 121.341 36.5 121.5C36.5 119.602 36.5 117.705 36.5 115.75C35.8339 115.75 35.532 116.001 34.9668 116.352ZM116.5 115.75C116.5 117.648 116.5 119.545 116.5 121.5C117.32 121.172 117.961 120.904 118.692 120.459C118.858 120.359 119.023 120.259 119.193 120.156C119.361 120.053 119.53 119.95 119.703 119.844C119.876 119.739 120.05 119.634 120.228 119.525C120.653 119.268 121.076 119.009 121.5 118.75C120.574 117.978 119.605 117.316 118.578 116.688C118.433 116.597 118.288 116.506 118.138 116.412C117.376 115.909 117.376 115.909 116.5 115.75Z" fill="black"/>
<path d="M10.5 28.75C11.2173 29.3163 11.4598 29.6293 11.75 30.5C11.7736 31.247 11.7825 31.9881 11.78 32.7351C11.7803 32.9665 11.7805 33.1979 11.7807 33.4362C11.7811 34.2147 11.7797 34.9932 11.7784 35.7717C11.7783 36.3284 11.7783 36.8852 11.7785 37.4419C11.7785 38.9563 11.7771 40.4707 11.7753 41.985C11.7738 43.5666 11.7736 45.1481 11.7733 46.7296C11.7726 49.3851 11.7711 52.0405 11.7688 54.696C11.7665 57.4313 11.7648 60.1665 11.7637 62.9018C11.7636 63.0704 11.7636 63.2389 11.7635 63.4126C11.7632 64.2583 11.7629 65.1039 11.7626 65.9495C11.76 72.9664 11.7555 79.9832 11.75 87C11.9176 86.9935 12.0853 86.9869 12.258 86.9802C13.0209 86.9541 13.7837 86.9379 14.5469 86.9219C14.9425 86.9062 14.9425 86.9062 15.3462 86.8901C17.3035 86.8593 17.3035 86.8593 18.2992 87.5724C18.7838 88.3008 18.9405 88.8139 18.8801 89.6921C18.6117 90.8426 17.968 91.7919 17.3437 92.7812C17.1267 93.1359 17.1267 93.1359 16.9052 93.4976C16.4415 94.2514 15.9711 95.0008 15.5 95.75C15.1858 96.2568 14.8716 96.7636 14.5576 97.2705C14.2524 97.7588 13.9468 98.2467 13.6406 98.7344C13.4991 98.9605 13.3576 99.1866 13.2118 99.4196C11.0855 102.757 11.0855 102.757 9.85936 103.266C9.08993 103.246 8.67183 103.136 7.99998 102.75C6.79917 101.452 5.90945 99.97 4.98436 98.4687C4.82159 98.2051 4.65883 97.9415 4.49113 97.6699C4.15692 97.1278 3.8232 96.5854 3.48997 96.0427C3.02846 95.2961 2.55945 94.5548 2.08787 93.8144C1.81361 93.3764 1.53951 92.9383 1.26561 92.5C1.13716 92.3018 1.00872 92.1035 0.876384 91.8993C0.0876144 90.6194 -0.252821 89.7574 -1.94758e-05 88.25C0.450237 87.5713 0.450237 87.5713 1.24998 87C2.23876 86.8467 3.20559 86.8823 4.20311 86.9219C4.60602 86.9303 4.60602 86.9303 5.01707 86.939C5.6784 86.9537 6.33901 86.9742 6.99998 87C6.99929 86.7102 6.9986 86.4204 6.99789 86.1218C6.98164 79.2423 6.96927 72.3628 6.96168 65.4833C6.96074 64.6365 6.95977 63.7898 6.95878 62.943C6.95858 62.7744 6.95839 62.6058 6.95819 62.4322C6.95492 59.7027 6.94901 56.9732 6.94212 54.2437C6.9351 51.443 6.93099 48.6422 6.92941 45.8415C6.92844 44.2684 6.92613 42.6953 6.92068 41.1222C6.9156 39.6419 6.91402 38.1616 6.91515 36.6813C6.91494 36.1377 6.91345 35.5941 6.91058 35.0505C6.90685 34.3087 6.90774 33.5671 6.90979 32.8253C6.9076 32.6099 6.90542 32.3944 6.90317 32.1724C6.91247 30.9284 7.06601 30.0812 7.74998 29C8.62045 28.285 9.45536 28.4888 10.5 28.75ZM6.49998 91.5C6.82803 92.3201 7.0958 92.961 7.541 93.6924C7.69085 93.9401 7.69085 93.9401 7.84373 94.1929C7.94686 94.3612 8.04998 94.5296 8.15623 94.7031C8.26129 94.8763 8.36635 95.0496 8.47459 95.228C8.73222 95.6525 8.99098 96.0763 9.24998 96.5C10.0218 95.5735 10.6844 94.6052 11.3125 93.5781C11.4034 93.4329 11.4942 93.2878 11.5879 93.1382C12.0915 92.3756 12.0915 92.3756 12.25 91.5C10.3525 91.5 8.45498 91.5 6.49998 91.5Z" fill="black"/>
<path d="M9.32812 -0.15625C9.51278 -0.169785 9.69744 -0.18332 9.88769 -0.197266C11.7856 0.414171 12.9602 3.23208 13.9219 4.82812C14.1859 5.26435 14.4503 5.70039 14.7147 6.13641C14.8908 6.42694 15.0667 6.71759 15.2424 7.00836C15.7724 7.88339 16.3156 8.74805 16.8721 9.60645C17.0006 9.80728 17.1291 10.0081 17.2615 10.215C17.496 10.5803 17.7337 10.9435 17.9753 11.304C18.7376 12.5062 18.9716 13.3244 18.75 14.75C18.3096 15.4951 18.3096 15.4951 17.5 16C16.5099 16.147 15.5449 16.1178 14.5469 16.0781C14.2783 16.0725 14.0097 16.0668 13.7329 16.061C13.0716 16.0463 12.411 16.0258 11.75 16C11.7539 16.2812 11.7578 16.5625 11.7619 16.8522C11.7755 17.8982 11.7841 18.9441 11.7912 19.9902C11.795 20.4424 11.8001 20.8947 11.8066 21.3469C11.8157 21.9979 11.8199 22.6487 11.8232 23.2998C11.8271 23.5012 11.831 23.7025 11.835 23.91C11.8353 25.0713 11.737 25.7981 11 26.75C10.4018 27.3482 10.2264 27.3301 9.40624 27.3438C8.57278 27.3263 8.3189 27.3 7.62499 26.7969C6.87406 25.7018 6.96751 24.6238 6.97558 23.3486C6.97593 23.1388 6.97629 22.929 6.97665 22.7129C6.97805 22.0429 6.98119 21.373 6.98437 20.7031C6.98562 20.2489 6.98676 19.7946 6.98779 19.3403C6.99054 18.2269 6.99486 17.1134 6.99999 16C6.83236 16.0065 6.66472 16.0131 6.492 16.0198C5.7291 16.0459 4.96629 16.0621 4.20312 16.0781C3.93934 16.0886 3.67557 16.0991 3.4038 16.1099C2.20466 16.1288 1.47438 16.1399 0.440424 15.4951C-0.124341 14.5397 -0.243175 13.8154 -5.98282e-06 12.75C0.357408 11.9198 0.822382 11.1797 1.31249 10.4219C1.44676 10.2067 1.58102 9.99145 1.71935 9.76971C2.14225 9.09388 2.57106 8.42202 2.99999 7.75C3.27196 7.31605 3.54345 6.88181 3.81445 6.44727C4.79247 4.88366 5.78035 3.32694 6.79101 1.78418C6.96775 1.51381 6.96775 1.51381 7.14807 1.23798C7.79324 0.343393 8.19513 -0.1132 9.32812 -0.15625ZM9.24999 6.5C8.75274 7.2174 8.31261 7.97297 7.85937 8.71875C7.66432 9.03441 7.66432 9.03441 7.46533 9.35645C7.34238 9.55786 7.21944 9.75928 7.09277 9.9668C6.97915 10.1527 6.86553 10.3386 6.74847 10.5302C6.46104 10.9851 6.46104 10.9851 6.49999 11.5C8.39749 11.5 10.295 11.5 12.25 11.5C11.9248 10.687 11.6545 10.0377 11.2178 9.30762C11.119 9.14246 11.0202 8.97729 10.9185 8.80713C10.8165 8.63875 10.7145 8.47036 10.6094 8.29688C10.5064 8.12366 10.4034 7.95044 10.2974 7.77197C10.0393 7.34325 9.77057 6.92095 9.49999 6.5C9.41749 6.5 9.33499 6.5 9.24999 6.5Z" fill="black"/>
</g>
<defs>
<clipPath id="clip0_227_78">
<rect width="128" height="128" fill="white"/>
</clipPath>
</defs>
</svg>
