<svg width="137" height="143" viewBox="0 0 137 143" fill="none" xmlns="http://www.w3.org/2000/svg">
<path d="M19.5003 98.8544L42.5 80.3512L44.5002 98.2611L19.5003 101.354L19.5003 98.8544Z" fill="#BABABA"/>
<path d="M17.5 98.8516L25.0015 76.3478L42.5035 79.8486L19.0014 98.8481L17.5 98.8516Z" fill="#D9D9D9"/>
<path d="M45.1832 98.0858L17 123.324" stroke="#472B0B" stroke-width="0.5"/>
<path d="M44.9999 97.8516L132.543 15.3102L131.999 5.85173L43 79.8516L44.9999 97.8516Z" fill="#D0D0D0"/>
<path d="M17 98.8613L3 111.861" stroke="#472B0B" stroke-width="0.5"/>
<path d="M24.5 76.3545L17 99.0319M17 99.0319H19.2172V101.769L17 101.451V99.0319Z" stroke="#472B0B"/>
<path d="M19.5 101.854L44.7109 98.4784M44.7109 98.4784L42.5 79.3545L25 76.3545L122.151 3.8379L132.477 5.32683L132.629 15.6051L44.7109 98.4784Z" stroke="#472B0B"/>
<path d="M18.5 99.3516L42.316 79.8555C76.9493 51.1494 97.3667 34.5577 132 5.85156" stroke="#472B0B"/>
<path d="M63.2567 80.6554L54.7432 70.0479" stroke="#472B0B" stroke-width="0.5"/>
<path d="M3.30966 114.579V121.852H2.42898V115.502H2.38636L0.610795 116.681V115.786L2.42898 114.579H3.30966ZM7.67401 121.951C7.25734 121.951 6.8821 121.868 6.5483 121.702C6.21449 121.537 5.94697 121.309 5.74574 121.021C5.54451 120.732 5.43442 120.403 5.41548 120.033H6.26776C6.3009 120.362 6.45005 120.635 6.7152 120.85C6.98272 121.063 7.30232 121.17 7.67401 121.17C7.9723 121.17 8.23745 121.1 8.46946 120.96C8.70384 120.821 8.88731 120.629 9.01989 120.385C9.15483 120.139 9.2223 119.861 9.2223 119.55C9.2223 119.233 9.15246 118.95 9.01278 118.702C8.87547 118.451 8.68608 118.253 8.4446 118.109C8.20313 117.964 7.92732 117.891 7.61719 117.888C7.39465 117.886 7.16619 117.92 6.93182 117.991C6.69744 118.06 6.5045 118.149 6.35298 118.258L5.52912 118.158L5.96946 114.579H9.74787V115.36H6.7081L6.45241 117.505H6.49503C6.64418 117.387 6.8312 117.288 7.05611 117.21C7.28101 117.132 7.51539 117.093 7.75923 117.093C8.20431 117.093 8.60085 117.2 8.94886 117.413C9.29924 117.623 9.57386 117.912 9.77273 118.279C9.97396 118.646 10.0746 119.065 10.0746 119.536C10.0746 120 9.97041 120.415 9.76207 120.779C9.55611 121.141 9.27202 121.428 8.9098 121.638C8.54759 121.847 8.13565 121.951 7.67401 121.951ZM13.8574 121.951C13.3224 121.951 12.8667 121.805 12.4902 121.514C12.1138 121.221 11.8262 120.796 11.6273 120.239C11.4284 119.681 11.329 119.006 11.329 118.215C11.329 117.429 11.4284 116.758 11.6273 116.202C11.8285 115.643 12.1174 115.217 12.4938 114.923C12.8726 114.627 13.3271 114.479 13.8574 114.479C14.3877 114.479 14.8411 114.627 15.2175 114.923C15.5963 115.217 15.8851 115.643 16.084 116.202C16.2852 116.758 16.3858 117.429 16.3858 118.215C16.3858 119.006 16.2864 119.681 16.0875 120.239C15.8887 120.796 15.601 121.221 15.2246 121.514C14.8482 121.805 14.3925 121.951 13.8574 121.951ZM13.8574 121.17C14.3877 121.17 14.7997 120.914 15.0932 120.403C15.3868 119.891 15.5336 119.162 15.5336 118.215C15.5336 117.585 15.4661 117.049 15.3311 116.607C15.1986 116.164 15.0068 115.826 14.7559 115.594C14.5073 115.362 14.2078 115.246 13.8574 115.246C13.3319 115.246 12.9211 115.506 12.6252 116.024C12.3292 116.54 12.1813 117.271 12.1813 118.215C12.1813 118.845 12.2476 119.38 12.3801 119.82C12.5127 120.261 12.7033 120.596 12.9519 120.825C13.2028 121.055 13.5047 121.17 13.8574 121.17Z" fill="#FFA234"/>
<path d="M61.2884 68.5877L65.8663 74.2389L65.1819 74.7932L61.1853 69.8595L61.1522 69.8863L60.5146 71.92L59.9513 71.2247L60.6041 69.142L61.2884 68.5877ZM69.3201 71.569C68.9963 71.8313 68.6526 72.0031 68.2889 72.0844C67.9252 72.1658 67.5743 72.1576 67.2361 72.0598C66.898 71.962 66.6053 71.7756 66.3581 71.5006L67.0204 70.9641C67.2532 71.1989 67.5405 71.3166 67.8821 71.3171C68.2241 71.3143 68.5395 71.1959 68.8284 70.9619C69.0601 70.7742 69.2222 70.553 69.3146 70.2984C69.4088 70.0424 69.4306 69.7779 69.3802 69.505C69.33 69.2287 69.2074 68.9701 69.0122 68.7291C68.8125 68.4826 68.5801 68.3067 68.3151 68.2015C68.0505 68.0929 67.7789 68.0585 67.5003 68.0983C67.2218 68.1381 66.9613 68.2547 66.7188 68.448C66.5444 68.5863 66.3885 68.7568 66.2511 68.9595C66.1122 69.1603 66.0181 69.3508 65.9689 69.5308L65.2662 69.9721L63.3552 66.9135L66.2912 64.5351L66.7829 65.1422L64.4209 67.0556L65.5723 68.8832L65.6054 68.8564C65.6468 68.6705 65.7303 68.4764 65.8559 68.2742C65.9815 68.0719 66.139 67.894 66.3285 67.7405C66.6743 67.4604 67.0495 67.2936 67.4541 67.2401C67.8589 67.1832 68.2541 67.2348 68.6396 67.3948C69.027 67.5532 69.3689 67.8155 69.6655 68.1816C69.9575 68.5421 70.1374 68.9296 70.205 69.3441C70.2729 69.7552 70.2325 70.1566 70.0837 70.5483C69.9333 70.9382 69.6788 71.2784 69.3201 71.569ZM74.1249 67.6768C73.7091 68.0136 73.2634 68.1873 72.7876 68.198C72.3103 68.2068 71.8193 68.0577 71.3146 67.7506C70.8084 67.4416 70.3064 66.9799 69.8087 66.3655C69.314 65.7547 68.9688 65.1706 68.7731 64.6132C68.5778 64.0524 68.534 63.5394 68.6417 63.0744C68.7497 62.606 69.0098 62.2049 69.4219 61.8711C69.8339 61.5373 70.2793 61.3669 70.7581 61.3599C71.2372 61.3496 71.7299 61.4989 72.2361 61.8079C72.7427 62.1135 73.2433 62.5717 73.738 63.1825C74.2358 63.7969 74.5832 64.3838 74.7804 64.9431C74.976 65.5006 75.02 66.0118 74.9123 66.4769C74.8031 66.9401 74.5406 67.3401 74.1249 67.6768ZM73.6331 67.0698C74.0452 66.736 74.2043 66.278 74.1106 65.6959C74.0168 65.1137 73.6719 64.4548 73.0758 63.7189C72.6794 63.2296 72.2895 62.8554 71.9059 62.5963C71.5243 62.3358 71.1629 62.1944 70.8219 62.172C70.4827 62.1482 70.1769 62.2466 69.9047 62.4671C69.4963 62.798 69.3403 63.2579 69.4367 63.8471C69.5316 64.4344 69.8764 65.095 70.4709 65.829C70.8673 66.3184 71.2556 66.6924 71.6358 66.9511C72.016 67.2098 72.3749 67.3501 72.7127 67.3721C73.0522 67.3926 73.359 67.2918 73.6331 67.0698Z" fill="#472B0B"/>
<path d="M97.3458 77.0214C97.01 77.3484 96.6544 77.5823 96.2792 77.723C95.9057 77.862 95.5419 77.904 95.1877 77.8491C94.8335 77.7908 94.5167 77.6317 94.2372 77.3719L94.8784 76.7476C95.0554 76.9023 95.2543 76.9911 95.475 77.0141C95.694 77.0355 95.918 76.9991 96.147 76.905C96.3759 76.811 96.5904 76.6665 96.7906 76.4716C97.0145 76.2536 97.1749 76.0213 97.2719 75.7749C97.369 75.5284 97.399 75.2877 97.3619 75.0528C97.3248 74.8179 97.2171 74.6089 97.0388 74.4257C96.8521 74.2341 96.6403 74.1116 96.4033 74.0582C96.1646 74.0031 95.9132 74.0232 95.6491 74.1185C95.385 74.2137 95.1206 74.3902 94.856 74.6478L94.4388 75.0541L93.8937 74.4944L94.311 74.0881C94.5179 73.8866 94.6631 73.6726 94.7464 73.446C94.8315 73.2178 94.8521 72.9929 94.8081 72.7713C94.7659 72.5481 94.6556 72.3449 94.4772 72.1617C94.3055 71.9853 94.117 71.8698 93.9118 71.8152C93.7066 71.7605 93.4972 71.7661 93.2837 71.8319C93.0719 71.8961 92.8702 72.0215 92.6785 72.2081C92.4988 72.3832 92.3614 72.5814 92.2663 72.8028C92.1714 73.0209 92.1341 73.2405 92.1546 73.4618C92.1735 73.6814 92.2629 73.8818 92.4229 74.063L91.8123 74.6576C91.5565 74.3746 91.4059 74.0554 91.3604 73.6999C91.3133 73.3426 91.3582 72.985 91.4952 72.6268C91.6339 72.267 91.8534 71.941 92.1536 71.6487C92.4759 71.3348 92.8159 71.1309 93.1738 71.0369C93.53 70.9412 93.8732 70.9391 94.2035 71.0305C94.5337 71.1219 94.8186 71.2906 95.0581 71.5366C95.3438 71.83 95.5103 72.1553 95.5574 72.5126C95.6063 72.8681 95.5381 73.2138 95.3528 73.5495L95.3924 73.5902C95.7743 73.3241 96.1675 73.2138 96.5721 73.2593C96.975 73.3032 97.3375 73.4905 97.6595 73.8212C97.9354 74.1045 98.1059 74.4341 98.1712 74.8099C98.2366 75.1825 98.1998 75.562 98.0607 75.9486C97.9216 76.3351 97.6833 76.6928 97.3458 77.0214ZM101.846 72.6388C101.463 73.0121 101.035 73.2257 100.562 73.2797C100.088 73.332 99.5852 73.2282 99.0546 72.9684C98.5223 72.7068 97.9804 72.2928 97.4287 71.7263C96.8804 71.1632 96.4834 70.613 96.2377 70.0756C95.9921 69.535 95.9017 69.0282 95.9666 68.5552C96.0315 68.079 96.254 67.6558 96.6339 67.2859C97.0138 66.9159 97.4419 66.7056 97.918 66.655C98.3942 66.6011 98.8984 66.7049 99.4307 66.9664C99.963 67.2246 100.503 67.6353 101.052 68.1984C101.603 68.7649 102.003 69.3177 102.25 69.8567C102.496 70.394 102.586 70.8991 102.521 71.3721C102.455 71.8433 102.23 72.2656 101.846 72.6388ZM101.301 72.0791C101.681 71.7091 101.798 71.2386 101.652 70.6674C101.505 70.0963 101.102 69.4714 100.441 68.793C100.002 68.3418 99.5793 68.0047 99.1737 67.7817C98.7699 67.557 98.3971 67.4491 98.0555 67.458C97.7155 67.4652 97.4201 67.591 97.169 67.8354C96.7925 68.2021 96.6791 68.6744 96.8288 69.2523C96.9768 69.8285 97.3803 70.455 98.0393 71.1317C98.4786 71.5829 98.8994 71.9199 99.3016 72.1429C99.7038 72.3659 100.074 72.473 100.412 72.4641C100.752 72.4535 101.049 72.3252 101.301 72.0791ZM106.324 68.2785C105.941 68.6518 105.513 68.8654 105.04 68.9194C104.565 68.9717 104.063 68.8679 103.532 68.6081C103 68.3465 102.458 67.9325 101.906 67.366C101.358 66.8029 100.961 66.2527 100.715 65.7153C100.47 65.1747 100.379 64.6679 100.444 64.1949C100.509 63.7187 100.732 63.2955 101.112 62.9256C101.492 62.5556 101.92 62.3453 102.396 62.2947C102.872 62.2408 103.376 62.3446 103.908 62.6061C104.441 62.8643 104.981 63.275 105.529 63.8381C106.081 64.4046 106.48 64.9574 106.728 65.4964C106.973 66.0337 107.064 66.5388 106.999 67.0118C106.932 67.483 106.708 67.9053 106.324 68.2785ZM105.779 67.7188C106.159 67.3488 106.276 66.8783 106.129 66.3071C105.983 65.736 105.579 65.1111 104.919 64.4327C104.479 63.9815 104.057 63.6444 103.651 63.4214C103.248 63.1967 102.875 63.0888 102.533 63.0977C102.193 63.1049 101.898 63.2307 101.647 63.4751C101.27 63.8418 101.157 64.3141 101.307 64.892C101.455 65.4682 101.858 66.0947 102.517 66.7714C102.956 67.2226 103.377 67.5596 103.779 67.7826C104.182 68.0056 104.552 68.1127 104.89 68.1038C105.23 68.0932 105.526 67.9649 105.779 67.7188ZM110.802 63.9182C110.419 64.2915 109.991 64.5051 109.518 64.5591C109.043 64.6114 108.541 64.5076 108.01 64.2478C107.478 63.9862 106.936 63.5722 106.384 63.0057C105.836 62.4426 105.439 61.8924 105.193 61.355C104.948 60.8144 104.857 60.3076 104.922 59.8346C104.987 59.3584 105.209 58.9352 105.589 58.5653C105.969 58.1953 106.397 57.985 106.874 57.9344C107.35 57.8805 107.854 57.9843 108.386 58.2458C108.918 58.504 109.459 58.9147 110.007 59.4778C110.559 60.0443 110.958 60.5971 111.206 61.1361C111.451 61.6734 111.542 62.1785 111.477 62.6515C111.41 63.1227 111.185 63.545 110.802 63.9182ZM110.257 63.3585C110.637 62.9885 110.754 62.518 110.607 61.9468C110.461 61.3756 110.057 60.7508 109.397 60.0724C108.957 59.6212 108.535 59.2841 108.129 59.0611C107.725 58.8364 107.353 58.7285 107.011 58.7374C106.671 58.7446 106.376 58.8704 106.125 59.1148C105.748 59.4815 105.635 59.9538 105.784 60.5317C105.932 61.1079 106.336 61.7344 106.995 62.4111C107.434 62.8623 107.855 63.1993 108.257 63.4223C108.659 63.6453 109.03 63.7524 109.368 63.7435C109.708 63.7329 110.004 63.6046 110.257 63.3585Z" fill="#FFA234"/>
<path d="M23.1733 140.129C22.5639 140.129 22.0207 140.025 21.5437 139.815C21.0697 139.606 20.6927 139.315 20.4126 138.943C20.1357 138.567 19.9848 138.132 19.9602 137.636H21.1236C21.1482 137.941 21.2528 138.204 21.4375 138.426C21.6222 138.644 21.8638 138.814 22.1623 138.934C22.4608 139.054 22.7917 139.114 23.1548 139.114C23.5611 139.114 23.9212 139.043 24.2351 138.901C24.549 138.76 24.7952 138.563 24.9737 138.31C25.1522 138.058 25.2415 137.766 25.2415 137.433C25.2415 137.085 25.1553 136.779 24.983 136.515C24.8106 136.247 24.5582 136.038 24.2259 135.887C23.8935 135.736 23.4872 135.661 23.0071 135.661H22.25V134.645H23.0071C23.3826 134.645 23.7119 134.577 23.995 134.442C24.2813 134.306 24.5044 134.116 24.6644 133.869C24.8275 133.623 24.9091 133.334 24.9091 133.001C24.9091 132.681 24.8383 132.403 24.6967 132.166C24.5552 131.929 24.3551 131.744 24.0966 131.612C23.8411 131.48 23.5395 131.413 23.1918 131.413C22.8655 131.413 22.5578 131.473 22.2685 131.593C21.9822 131.71 21.7483 131.881 21.5668 132.106C21.3852 132.327 21.2867 132.595 21.2713 132.909H20.1634C20.1818 132.414 20.3311 131.98 20.6112 131.607C20.8912 131.232 21.2575 130.939 21.7099 130.73C22.1654 130.521 22.6655 130.416 23.2102 130.416C23.795 130.416 24.2966 130.535 24.7152 130.772C25.1338 131.006 25.4554 131.315 25.68 131.7C25.9047 132.084 26.017 132.5 26.017 132.946C26.017 133.478 25.877 133.932 25.5969 134.308C25.32 134.683 24.9429 134.943 24.4659 135.088V135.162C25.063 135.26 25.5292 135.514 25.8647 135.924C26.2002 136.33 26.3679 136.833 26.3679 137.433C26.3679 137.947 26.2279 138.409 25.9478 138.818C25.6708 139.224 25.2923 139.545 24.8121 139.778C24.332 140.012 23.7857 140.129 23.1733 140.129ZM30.3612 140.166C29.9118 140.166 29.504 140.082 29.1378 139.912C28.7715 139.74 28.4807 139.492 28.2653 139.169C28.0498 138.843 27.9421 138.449 27.9421 137.987C27.9421 137.581 28.0221 137.252 28.1822 136.999C28.3422 136.744 28.5561 136.544 28.8239 136.399C29.0916 136.254 29.3871 136.147 29.7102 136.076C30.0365 136.002 30.3642 135.944 30.6935 135.901C31.1244 135.845 31.4737 135.804 31.7415 135.776C32.0123 135.745 32.2093 135.694 32.3324 135.624C32.4586 135.553 32.5217 135.43 32.5217 135.254V135.217C32.5217 134.762 32.397 134.408 32.1477 134.156C31.9015 133.903 31.5276 133.777 31.0259 133.777C30.5058 133.777 30.098 133.891 29.8026 134.119C29.5071 134.346 29.2994 134.589 29.1793 134.848L28.1452 134.479C28.3299 134.048 28.5761 133.712 28.8839 133.472C29.1947 133.229 29.5333 133.06 29.8995 132.964C30.2688 132.866 30.632 132.817 30.989 132.817C31.2167 132.817 31.4783 132.844 31.7738 132.9C32.0723 132.952 32.3601 133.061 32.6371 133.228C32.9171 133.394 33.1495 133.645 33.3342 133.98C33.5188 134.316 33.6112 134.765 33.6112 135.328V140H32.5217V139.04H32.4663C32.3924 139.194 32.2693 139.358 32.0969 139.534C31.9246 139.709 31.6953 139.858 31.4091 139.982C31.1229 140.105 30.7736 140.166 30.3612 140.166ZM30.5273 139.188C30.9582 139.188 31.3214 139.103 31.6168 138.934C31.9154 138.764 32.14 138.546 32.2908 138.278C32.4447 138.01 32.5217 137.729 32.5217 137.433V136.436C32.4755 136.491 32.3739 136.542 32.217 136.588C32.0631 136.632 31.8846 136.67 31.6815 136.704C31.4814 136.735 31.286 136.762 31.0952 136.787C30.9074 136.808 30.7551 136.827 30.6381 136.842C30.355 136.879 30.0903 136.939 29.8441 137.022C29.601 137.102 29.404 137.224 29.2532 137.387C29.1055 137.547 29.0316 137.766 29.0316 138.043C29.0316 138.421 29.1716 138.707 29.4517 138.901C29.7348 139.092 30.0934 139.188 30.5273 139.188ZM40.8625 130.25L41.4165 130.915C41.201 131.124 40.9517 131.27 40.6686 131.353C40.3854 131.436 40.0654 131.487 39.7084 131.506C39.3514 131.524 38.9543 131.543 38.5173 131.561C38.0249 131.58 37.6171 131.7 37.2939 131.921C36.9708 132.143 36.7215 132.463 36.5461 132.881C36.3706 133.3 36.2583 133.814 36.2091 134.423H36.3014C36.5415 133.98 36.8738 133.654 37.2986 133.445C37.7233 133.235 38.1788 133.131 38.665 133.131C39.219 133.131 39.7176 133.26 40.1608 133.518C40.604 133.777 40.9548 134.16 41.2133 134.668C41.4719 135.176 41.6011 135.802 41.6011 136.547C41.6011 137.289 41.4688 137.929 41.2041 138.467C40.9425 139.006 40.5747 139.421 40.1008 139.714C39.6299 140.003 39.0774 140.148 38.4434 140.148C37.8095 140.148 37.2539 139.998 36.7769 139.7C36.2999 139.398 35.929 138.952 35.6643 138.361C35.3997 137.767 35.2673 137.033 35.2673 136.159V135.402C35.2673 133.823 35.5351 132.626 36.0706 131.81C36.6092 130.995 37.4186 130.573 38.4988 130.545C38.8805 130.533 39.2206 130.53 39.5191 130.536C39.8176 130.542 40.0777 130.529 40.2993 130.495C40.5209 130.461 40.7086 130.379 40.8625 130.25ZM38.4434 139.169C38.8712 139.169 39.239 139.061 39.5468 138.846C39.8576 138.63 40.0961 138.327 40.2623 137.936C40.4285 137.542 40.5116 137.079 40.5116 136.547C40.5116 136.03 40.427 135.59 40.2577 135.227C40.0915 134.863 39.853 134.586 39.5422 134.396C39.2313 134.205 38.8589 134.109 38.425 134.109C38.108 134.109 37.8233 134.163 37.5709 134.271C37.3186 134.379 37.1031 134.537 36.9246 134.746C36.7461 134.956 36.6076 135.211 36.5091 135.513C36.4137 135.814 36.363 136.159 36.3568 136.547C36.3568 137.341 36.543 137.976 36.9154 138.453C37.2878 138.931 37.7971 139.169 38.4434 139.169ZM44.3572 138.393L47.7733 132.909H49.029V140H47.9395V134.516L44.5418 140H43.2677V132.909H44.3572V138.393ZM51.0245 140V132.909H53.9237C54.6869 132.909 55.2932 133.081 55.7425 133.426C56.1919 133.771 56.4165 134.226 56.4165 134.793C56.4165 135.223 56.2888 135.557 56.0334 135.794C55.7779 136.028 55.4502 136.187 55.0501 136.27C55.3117 136.307 55.5656 136.399 55.8118 136.547C56.0611 136.695 56.2673 136.898 56.4304 137.156C56.5935 137.412 56.6751 137.726 56.6751 138.098C56.6751 138.461 56.5827 138.786 56.3981 139.072C56.2134 139.358 55.9487 139.585 55.604 139.751C55.2594 139.917 54.8469 140 54.3668 140H51.0245ZM52.0586 139.003H54.3668C54.7423 139.003 55.0362 138.914 55.2486 138.735C55.4609 138.557 55.5671 138.313 55.5671 138.006C55.5671 137.639 55.4609 137.352 55.2486 137.142C55.0362 136.93 54.7423 136.824 54.3668 136.824H52.0586V139.003ZM52.0586 135.882H53.9237C54.216 135.882 54.4669 135.842 54.6761 135.762C54.8854 135.679 55.0455 135.562 55.1562 135.411C55.2701 135.257 55.3271 135.076 55.3271 134.866C55.3271 134.568 55.2024 134.334 54.9531 134.165C54.7038 133.992 54.3607 133.906 53.9237 133.906H52.0586V135.882ZM63.07 135.956V136.972H59.1553V135.956H63.07ZM59.4138 132.909V140H58.3243V132.909H59.4138ZM63.901 132.909V140H62.8115V132.909H63.901ZM66.8325 135.476H68.8637C69.6947 135.476 70.3302 135.687 70.7703 136.108C71.2104 136.53 71.4305 137.064 71.4305 137.71C71.4305 138.135 71.332 138.521 71.135 138.869C70.9381 139.214 70.6488 139.489 70.2671 139.695C69.8855 139.898 69.4177 140 68.8637 140H65.8907V132.909H66.9802V138.984H68.8637C69.2946 138.984 69.6485 138.871 69.9255 138.643C70.2025 138.415 70.341 138.123 70.341 137.766C70.341 137.39 70.2025 137.084 69.9255 136.847C69.6485 136.61 69.2946 136.491 68.8637 136.491H66.8325V135.476ZM72.5569 140V132.909H73.6464V140H72.5569ZM78.6137 140.148C77.9305 140.148 77.3411 139.997 76.8456 139.695C76.3532 139.391 75.9731 138.966 75.7053 138.421C75.4407 137.873 75.3083 137.236 75.3083 136.51C75.3083 135.784 75.4407 135.143 75.7053 134.589C75.9731 134.032 76.3455 133.598 76.8225 133.288C77.3026 132.974 77.8628 132.817 78.5029 132.817C78.8722 132.817 79.2369 132.878 79.597 133.001C79.9571 133.125 80.2849 133.325 80.5803 133.602C80.8758 133.875 81.1112 134.239 81.2867 134.691C81.4621 135.143 81.5498 135.701 81.5498 136.362V136.824H76.0839V135.882H80.4419C80.4419 135.482 80.3618 135.125 80.2018 134.811C80.0448 134.497 79.8202 134.249 79.5278 134.068C79.2385 133.886 78.8969 133.795 78.5029 133.795C78.069 133.795 77.6935 133.903 77.3765 134.119C77.0626 134.331 76.821 134.608 76.6517 134.95C76.4825 135.291 76.3978 135.657 76.3978 136.048V136.676C76.3978 137.212 76.4901 137.666 76.6748 138.038C76.8625 138.407 77.1226 138.689 77.455 138.883C77.7874 139.074 78.1736 139.169 78.6137 139.169C78.8999 139.169 79.1585 139.129 79.3893 139.049C79.6232 138.966 79.8248 138.843 79.9941 138.68C80.1633 138.513 80.2941 138.307 80.3865 138.061L81.439 138.357C81.3282 138.714 81.142 139.027 80.8804 139.298C80.6188 139.566 80.2957 139.775 79.911 139.926C79.5262 140.074 79.0938 140.148 78.6137 140.148ZM89.7441 140.148C89.0793 140.148 88.5068 139.991 88.0267 139.677C87.5466 139.363 87.1773 138.931 86.9188 138.38C86.6602 137.829 86.531 137.199 86.531 136.491C86.531 135.771 86.6633 135.136 86.928 134.585C87.1958 134.031 87.5682 133.598 88.0452 133.288C88.5253 132.974 89.0854 132.817 89.7256 132.817C90.2242 132.817 90.6735 132.909 91.0736 133.094C91.4737 133.278 91.8015 133.537 92.0569 133.869C92.3124 134.202 92.4709 134.589 92.5324 135.033H91.4429C91.3598 134.71 91.1752 134.423 90.8889 134.174C90.6058 133.922 90.2242 133.795 89.7441 133.795C89.3193 133.795 88.9469 133.906 88.6269 134.128C88.3099 134.346 88.0621 134.656 87.8836 135.056C87.7082 135.453 87.6205 135.919 87.6205 136.455C87.6205 137.002 87.7066 137.479 87.879 137.886C88.0544 138.292 88.3006 138.607 88.6176 138.832C88.9377 139.057 89.3132 139.169 89.7441 139.169C90.0272 139.169 90.2842 139.12 90.515 139.021C90.7458 138.923 90.9413 138.781 91.1013 138.597C91.2613 138.412 91.3752 138.19 91.4429 137.932H92.5324C92.4709 138.35 92.3185 138.727 92.0754 139.063C91.8353 139.395 91.5168 139.66 91.1198 139.857C90.7258 140.051 90.2673 140.148 89.7441 140.148ZM94.1251 140V132.909H97.0242C97.7875 132.909 98.3938 133.081 98.8431 133.426C99.2925 133.771 99.5171 134.226 99.5171 134.793C99.5171 135.223 99.3894 135.557 99.134 135.794C98.8785 136.028 98.5508 136.187 98.1507 136.27C98.4123 136.307 98.6662 136.399 98.9124 136.547C99.1617 136.695 99.3679 136.898 99.531 137.156C99.6941 137.412 99.7757 137.726 99.7757 138.098C99.7757 138.461 99.6833 138.786 99.4987 139.072C99.314 139.358 99.0493 139.585 98.7046 139.751C98.3599 139.917 97.9475 140 97.4674 140H94.1251ZM95.1592 139.003H97.4674C97.8429 139.003 98.1368 138.914 98.3492 138.735C98.5615 138.557 98.6677 138.313 98.6677 138.006C98.6677 137.639 98.5615 137.352 98.3492 137.142C98.1368 136.93 97.8429 136.824 97.4674 136.824H95.1592V139.003ZM95.1592 135.882H97.0242C97.3166 135.882 97.5674 135.842 97.7767 135.762C97.986 135.679 98.146 135.562 98.2568 135.411C98.3707 135.257 98.4276 135.076 98.4276 134.866C98.4276 134.568 98.303 134.334 98.0537 134.165C97.8044 133.992 97.4613 133.906 97.0242 133.906H95.1592V135.882ZM103.512 140.166C103.062 140.166 102.654 140.082 102.288 139.912C101.922 139.74 101.631 139.492 101.416 139.169C101.2 138.843 101.093 138.449 101.093 137.987C101.093 137.581 101.173 137.252 101.333 136.999C101.493 136.744 101.706 136.544 101.974 136.399C102.242 136.254 102.537 136.147 102.861 136.076C103.187 136.002 103.515 135.944 103.844 135.901C104.275 135.845 104.624 135.804 104.892 135.776C105.163 135.745 105.36 135.694 105.483 135.624C105.609 135.553 105.672 135.43 105.672 135.254V135.217C105.672 134.762 105.547 134.408 105.298 134.156C105.052 133.903 104.678 133.777 104.176 133.777C103.656 133.777 103.248 133.891 102.953 134.119C102.657 134.346 102.45 134.589 102.33 134.848L101.296 134.479C101.48 134.048 101.727 133.712 102.034 133.472C102.345 133.229 102.684 133.06 103.05 132.964C103.419 132.866 103.782 132.817 104.139 132.817C104.367 132.817 104.629 132.844 104.924 132.9C105.223 132.952 105.51 133.061 105.787 133.228C106.068 133.394 106.3 133.645 106.485 133.98C106.669 134.316 106.762 134.765 106.762 135.328V140H105.672V139.04H105.617C105.543 139.194 105.42 139.358 105.247 139.534C105.075 139.709 104.846 139.858 104.559 139.982C104.273 140.105 103.924 140.166 103.512 140.166ZM103.678 139.188C104.109 139.188 104.472 139.103 104.767 138.934C105.066 138.764 105.29 138.546 105.441 138.278C105.595 138.01 105.672 137.729 105.672 137.433V136.436C105.626 136.491 105.524 136.542 105.367 136.588C105.213 136.632 105.035 136.67 104.832 136.704C104.632 136.735 104.436 136.762 104.246 136.787C104.058 136.808 103.905 136.827 103.789 136.842C103.505 136.879 103.241 136.939 102.994 137.022C102.751 137.102 102.554 137.224 102.404 137.387C102.256 137.547 102.182 137.766 102.182 138.043C102.182 138.421 102.322 138.707 102.602 138.901C102.885 139.092 103.244 139.188 103.678 139.188ZM109.84 138.393L113.256 132.909H114.511V140H113.422V134.516L110.024 140H108.75V132.909H109.84V138.393Z" fill="#472B0B"/>
<path d="M20.6925 53.174L25.0331 59.0094L24.3265 59.535L19.9859 53.6996L20.6925 53.174ZM21.0896 61.9427L20.718 57.4923L16.9086 55.9886L17.7634 55.3528L21.2037 56.8124L23.335 55.2271L22.9264 51.5124L23.7812 50.8765L24.1229 54.9773L28.2699 56.6017L27.4607 57.2036L23.9521 55.7949L21.5586 57.5752L21.8875 61.3492L21.0896 61.9427ZM30.7803 54.876C30.3586 55.1897 29.9256 55.3672 29.4813 55.4085C29.0375 55.4465 28.6079 55.3589 28.1926 55.1456C27.7777 54.929 27.4036 54.5965 27.0701 54.1483C26.7366 53.7 26.5244 53.2441 26.4335 52.7807C26.343 52.3139 26.3736 51.8751 26.5253 51.4643C26.6775 51.0501 26.9512 50.6961 27.3463 50.4022C27.5742 50.2326 27.8276 50.1032 28.1063 50.0138C28.3851 49.9245 28.6792 49.8975 28.9888 49.9328C29.2969 49.9662 29.6089 50.0823 29.9249 50.281C30.2409 50.4797 30.5508 50.7832 30.8545 51.1916L31.0665 51.4765L27.6929 53.9859L27.2605 53.4047L29.9503 51.4039C29.7666 51.157 29.5533 50.9734 29.3104 50.8531C29.0694 50.7314 28.817 50.6817 28.5532 50.7038C28.2913 50.7246 28.0387 50.8254 27.7956 51.0062C27.5278 51.2054 27.3455 51.4443 27.2487 51.7228C27.1525 51.998 27.1305 52.2799 27.1829 52.5684C27.2352 52.857 27.3511 53.1219 27.5306 53.3631L27.8188 53.7506C28.0647 54.0812 28.3301 54.319 28.615 54.464C28.9004 54.6058 29.1902 54.6602 29.4844 54.6273C29.7772 54.5924 30.0594 54.474 30.331 54.272C30.5077 54.1405 30.6488 53.9972 30.7546 53.8418C30.8608 53.6831 30.9287 53.5146 30.9583 53.3362C30.9865 53.1559 30.9725 52.9686 30.9165 52.7743L31.7018 52.4734C31.7973 52.7446 31.8265 53.0238 31.7894 53.3111C31.7508 53.5965 31.6474 53.874 31.4792 54.1437C31.3096 54.4115 31.0766 54.6556 30.7803 54.876ZM33.1601 52.9642L32.6938 52.3374L32.8533 52.2187C32.9844 52.1212 33.0746 52.0143 33.1238 51.898C33.1716 51.7799 33.1734 51.6354 33.129 51.4648C33.0852 51.2909 32.99 51.0755 32.8432 50.8188C32.697 50.5587 32.4942 50.2405 32.2348 49.864L30.8734 47.8671L33.7911 45.6968L37.0465 50.0733L36.3741 50.5735L33.5849 46.8238L31.9779 48.0192L33.071 49.6315C33.3228 50.0018 33.5258 50.3421 33.6799 50.6524C33.8344 50.9593 33.9308 51.2417 33.9691 51.4994C34.0093 51.7557 33.9833 51.9905 33.891 52.2036C33.7988 52.4168 33.6311 52.6138 33.388 52.7947L33.1601 52.9642ZM40.183 47.8819C39.7613 48.1956 39.3284 48.3731 38.8841 48.4144C38.4402 48.4524 38.0107 48.3648 37.5953 48.1515C37.1804 47.9349 36.8063 47.6024 36.4728 47.1541C36.1394 46.7058 35.9272 46.25 35.8362 45.7866C35.7457 45.3198 35.7763 44.881 35.928 44.4701C36.0803 44.056 36.3539 43.7019 36.749 43.408C36.977 43.2385 37.2303 43.109 37.5091 43.0197C37.7878 42.9304 38.082 42.9034 38.3915 42.9387C38.6996 42.9721 39.0117 43.0882 39.3276 43.2869C39.6436 43.4855 39.9535 43.7891 40.2573 44.1975L40.4692 44.4824L37.0956 46.9918L36.6633 46.4106L39.353 44.4098C39.1693 44.1629 38.956 43.9793 38.7132 43.859C38.4722 43.7373 38.2197 43.6875 37.9559 43.7097C37.694 43.7304 37.4415 43.8312 37.1983 44.0121C36.9305 44.2113 36.7482 44.4502 36.6515 44.7287C36.5552 45.0039 36.5332 45.2858 36.5856 45.5743C36.638 45.8629 36.7539 46.1278 36.9333 46.369L37.2216 46.7565C37.4674 47.0871 37.7328 47.3248 38.0178 47.4699C38.3032 47.6117 38.593 47.6661 38.8871 47.6332C39.1799 47.5983 39.4621 47.4799 39.7337 47.2778C39.9104 47.1464 40.0516 47.003 40.1573 46.8477C40.2635 46.689 40.3314 46.5205 40.361 46.3421C40.3892 46.1618 40.3753 45.9745 40.3192 45.7801L41.1045 45.4793C41.2 45.7505 41.2292 46.0297 41.1921 46.317C41.1536 46.6023 41.0502 46.8799 40.882 47.1496C40.7124 47.4174 40.4794 47.6615 40.183 47.8819ZM41.8459 44.7684L42.564 44.2343C42.7261 44.4206 42.927 44.5042 43.1667 44.4853C43.4082 44.4649 43.661 44.3566 43.9251 44.1602C44.1948 43.9595 44.3846 43.7328 44.4945 43.4799C44.603 43.2251 44.5647 42.9733 44.3796 42.7244C44.2708 42.5782 44.1401 42.4778 43.9873 42.4232C43.8332 42.3667 43.668 42.3568 43.4917 42.3935C43.3154 42.4302 43.138 42.515 42.9595 42.6478L42.2072 43.2073L41.7579 42.6033L42.5101 42.0437C42.778 41.8445 42.9303 41.6368 42.9671 41.4206C43.0059 41.2029 42.9574 41.0029 42.8218 40.8205C42.6763 40.6249 42.4904 40.5197 42.2641 40.5051C42.0364 40.4886 41.7953 40.575 41.5408 40.7643C41.2843 40.9551 41.1137 41.172 41.0289 41.415C40.9428 41.6562 40.962 41.8705 41.0868 42.058L40.3801 42.5836C40.2125 42.3424 40.13 42.0807 40.1325 41.7985C40.1337 41.5145 40.2138 41.2335 40.3731 40.9557C40.5309 40.6761 40.7618 40.4232 41.0657 40.1971C41.3734 39.9682 41.6806 39.8238 41.9872 39.764C42.2943 39.7008 42.5781 39.7154 42.8386 39.8078C43.0996 39.8969 43.3163 40.0573 43.4887 40.2891C43.6724 40.536 43.7514 40.787 43.7258 41.0422C43.7001 41.2973 43.6069 41.5348 43.4459 41.7548L43.4799 41.8004C43.6536 41.6889 43.8366 41.6354 44.0288 41.6399C44.2215 41.6412 44.4086 41.6924 44.59 41.7934C44.77 41.8926 44.9278 42.0334 45.0635 42.2158C45.2613 42.4817 45.3624 42.7664 45.3669 43.07C45.37 43.3716 45.2873 43.6691 45.119 43.9625C44.9493 44.2539 44.7049 44.5184 44.3858 44.7557C44.0762 44.986 43.7614 45.142 43.4415 45.2236C43.1201 45.3033 42.8201 45.3066 42.5416 45.2335C42.2634 45.1571 42.0316 45.0021 41.8459 44.7684ZM48.7609 41.5013C48.3658 41.7952 47.9492 41.9591 47.5111 41.9929C47.0749 42.0252 46.6474 41.9345 46.2288 41.7207C45.812 41.5055 45.4355 41.1719 45.0992 40.7198C44.7601 40.2639 44.5467 39.8045 44.459 39.3416C44.3733 38.8772 44.4086 38.4408 44.5651 38.0323C44.7234 37.6224 45.0001 37.2705 45.3953 36.9766C45.7904 36.6827 46.206 36.5196 46.6422 36.4872C47.0803 36.4535 47.5085 36.5451 47.9267 36.7622C48.3467 36.9779 48.7263 37.3137 49.0654 37.7696C49.4017 38.2217 49.612 38.6789 49.6964 39.1414C49.7826 39.6024 49.7466 40.0379 49.5882 40.4478C49.4318 40.8563 49.156 41.2075 48.7609 41.5013ZM48.3116 40.8973C48.6117 40.674 48.8014 40.4134 48.8807 40.1154C48.96 39.8175 48.953 39.5085 48.8595 39.1885C48.7661 38.8685 48.6106 38.5623 48.393 38.2698C48.1754 37.9772 47.9261 37.7393 47.6451 37.5559C47.3641 37.3724 47.0688 37.2749 46.7592 37.2633C46.4496 37.2516 46.1447 37.3574 45.8446 37.5807C45.5444 37.8039 45.3554 38.0655 45.2775 38.3654C45.1997 38.6653 45.2081 38.9762 45.303 39.298C45.3978 39.6199 45.554 39.9271 45.7716 40.2196C45.9892 40.5122 46.2378 40.7492 46.5174 40.9307C46.797 41.1122 47.0909 41.2078 47.3991 41.2176C47.7073 41.2273 48.0115 41.1205 48.3116 40.8973ZM52.1161 34.4913L52.5823 35.1182L50.0294 37.0172L49.5631 36.3903L52.1161 34.4913ZM54.1652 27.9924L54.8123 28.1484C54.7755 28.3765 54.6887 28.5812 54.5521 28.7624C54.4155 28.9437 54.2413 29.122 54.0294 29.2973C53.8175 29.4726 53.581 29.6663 53.3197 29.8783C53.0242 30.1158 52.8277 30.3771 52.7299 30.6622C52.6322 30.9473 52.6253 31.2593 52.7092 31.5982C52.7931 31.9371 52.9597 32.3059 53.2091 32.7046L53.2661 32.6622C53.2108 32.2785 53.2661 31.9245 53.4322 31.6004C53.5983 31.2762 53.8314 31.0025 54.1315 30.7793C54.4734 30.5249 54.8405 30.3758 55.2327 30.3319C55.6249 30.288 56.0174 30.3634 56.4101 30.5582C56.8028 30.7529 57.1701 31.0801 57.512 31.5398C57.8525 31.9976 58.0648 32.4534 58.1487 32.9074C58.2345 33.3599 58.1982 33.7852 58.0399 34.1832C57.8821 34.578 57.6076 34.9209 57.2162 35.2119C56.8249 35.503 56.4135 35.6659 55.9821 35.7007C55.5492 35.7335 55.1154 35.6284 54.6807 35.3852C54.2447 35.1401 53.826 34.7478 53.4247 34.2083L53.0771 33.741C52.3523 32.7666 51.9679 31.9047 51.924 31.1555C51.882 30.4048 52.188 29.773 52.842 29.2599C53.0719 29.0771 53.2804 28.9191 53.4675 28.7858C53.6546 28.6526 53.8087 28.5246 53.9299 28.402C54.0512 28.2794 54.1296 28.1429 54.1652 27.9924ZM56.7669 34.6079C57.031 34.4115 57.2085 34.1762 57.2996 33.9019C57.3925 33.6262 57.4005 33.3296 57.3237 33.0121C57.2454 32.6926 57.084 32.3686 56.8396 32.04C56.6022 31.7209 56.3479 31.4881 56.0767 31.3416C55.8074 31.1938 55.533 31.1323 55.2536 31.1573C54.9741 31.1822 54.7005 31.2943 54.4326 31.4935C54.237 31.6391 54.086 31.803 53.9797 31.9853C53.8734 32.1677 53.8132 32.3644 53.7991 32.5755C53.785 32.7867 53.8168 33.0079 53.8945 33.2393C53.9741 33.4692 54.101 33.7053 54.2752 33.9475C54.6397 34.4375 55.0464 34.7443 55.4953 34.8678C55.9441 34.9912 56.368 34.9046 56.7669 34.6079ZM62.0287 31.6322C61.607 31.9459 61.174 32.1234 60.7297 32.1647C60.2859 32.2028 59.8564 32.1151 59.441 31.9018C59.0261 31.6852 58.652 31.3528 58.3185 30.9045C57.9851 30.4562 57.7728 30.0003 57.6819 29.5369C57.5914 29.0702 57.622 28.6313 57.7737 28.2205C57.9259 27.8063 58.1996 27.4523 58.5947 27.1584C58.8226 26.9888 59.076 26.8594 59.3548 26.7701C59.6335 26.6807 59.9277 26.6537 60.2372 26.689C60.5453 26.7224 60.8573 26.8385 61.1733 27.0372C61.4893 27.2359 61.7992 27.5394 62.103 27.9478L62.3149 28.2328L58.9413 30.7422L58.509 30.1609L61.1987 28.1602C61.015 27.9132 60.8017 27.7296 60.5588 27.6093C60.3178 27.4876 60.0654 27.4379 59.8016 27.46C59.5397 27.4808 59.2872 27.5816 59.044 27.7624C58.7762 27.9617 58.5939 28.2005 58.4971 28.479C58.4009 28.7542 58.3789 29.0361 58.4313 29.3247C58.4837 29.6132 58.5996 29.8781 58.779 30.1194L59.0673 30.5069C59.3131 30.8374 59.5785 31.0752 59.8634 31.2203C60.1489 31.362 60.4387 31.4164 60.7328 31.3835C61.0256 31.3487 61.3078 31.2302 61.5794 31.0282C61.7561 30.8968 61.8973 30.7534 62.003 30.598C62.1092 30.4394 62.1771 30.2708 62.2067 30.0924C62.2349 29.9121 62.2209 29.7248 62.1649 29.5305L62.9502 29.2296C63.0457 29.5008 63.0749 29.7801 63.0378 30.0673C62.9992 30.3527 62.8959 30.6302 62.7277 30.8999C62.558 31.1677 62.3251 31.4118 62.0287 31.6322ZM61.5994 25.9856L61.1331 25.3588L64.689 22.7137L65.1553 23.3406L63.7193 24.4087L66.5084 28.1584L65.836 28.6586L63.0468 24.9089L61.5994 25.9856ZM70.5439 25.2983C70.1488 25.5922 69.7322 25.756 69.2941 25.7898C68.8579 25.8222 68.4304 25.7315 68.0118 25.5177C67.595 25.3025 67.2185 24.9689 66.8822 24.5168C66.5431 24.0609 66.3297 23.6015 66.2421 23.1385C66.1563 22.6742 66.1916 22.2378 66.3481 21.8293C66.5064 21.4194 66.7832 21.0675 67.1783 20.7736C67.5734 20.4797 67.989 20.3166 68.4252 20.2842C68.8633 20.2504 69.2915 20.3421 69.7097 20.5592C70.1297 20.7749 70.5093 21.1106 70.8484 21.5665C71.1847 22.0186 71.395 22.4759 71.4794 22.9384C71.5656 23.3994 71.5296 23.8349 71.3712 24.2448C71.2148 24.6532 70.939 25.0044 70.5439 25.2983ZM70.0946 24.6943C70.3947 24.471 70.5844 24.2104 70.6637 23.9124C70.743 23.6144 70.736 23.3055 70.6425 22.9855C70.5491 22.6655 70.3936 22.3593 70.176 22.0667C69.9584 21.7742 69.7091 21.5362 69.4281 21.3528C69.1471 21.1694 68.8518 21.0719 68.5422 21.0603C68.2326 21.0486 67.9277 21.1544 67.6276 21.3777C67.3275 21.6009 67.1384 21.8625 67.0605 22.1624C66.9827 22.4622 66.9911 22.7731 67.086 23.095C67.1808 23.4169 67.337 23.7241 67.5546 24.0166C67.7722 24.3091 68.0208 24.5461 68.3004 24.7276C68.58 24.9092 68.8739 25.0048 69.1821 25.0145C69.4903 25.0243 69.7945 24.9175 70.0946 24.6943ZM74.5582 18.2937L75.0244 18.9206L72.6082 20.7178L72.1419 20.091L74.5582 18.2937ZM70.9027 18.0918L74.1581 22.4683L73.4857 22.9685L70.2302 18.5919L70.9027 18.0918ZM73.6722 16.0317L76.9276 20.4082L76.2552 20.9084L72.9998 16.5319L73.6722 16.0317ZM79.2282 14.82L79.6945 15.4468L77.2782 17.2441L76.812 16.6172L79.2282 14.82ZM75.5727 14.618L78.8281 18.9946L78.1557 19.4947L74.9003 15.1182L75.5727 14.618ZM78.3422 12.5579L81.5977 16.9345L80.9252 17.4347L77.6698 13.0581L78.3422 12.5579ZM81.3299 12.7963L82.5836 11.8638C83.0965 11.4823 83.5856 11.3206 84.0508 11.3788C84.516 11.437 84.8969 11.6655 85.1937 12.0644C85.3887 12.3266 85.5052 12.6102 85.5433 12.9152C85.58 13.2184 85.5279 13.5213 85.387 13.8237C85.2447 14.1243 85.0026 14.4018 84.6607 14.6561L82.8257 16.021L79.5703 11.6445L80.2427 11.1443L83.0319 14.894L84.1944 14.0292C84.4603 13.8314 84.6265 13.5987 84.6929 13.3309C84.7593 13.0632 84.7106 12.8192 84.5467 12.5988C84.3743 12.3671 84.1482 12.2416 83.8685 12.2225C83.5887 12.2034 83.3159 12.2928 83.0499 12.4906L81.7962 13.4232L81.3299 12.7963ZM86.9401 12.9605L83.6847 8.584L84.3571 8.08381L87.6126 12.4604L86.9401 12.9605ZM90.7463 10.271C90.3246 10.5847 89.8916 10.7622 89.4473 10.8035C89.0035 10.8416 88.5739 10.7539 88.1585 10.5406C87.7437 10.324 87.3695 9.99158 87.036 9.54329C86.7026 9.09499 86.4904 8.63913 86.3994 8.1757C86.3089 7.70896 86.3395 7.27015 86.4913 6.85929C86.6435 6.44512 86.9171 6.09108 87.3122 5.79719C87.5402 5.62763 87.7935 5.49819 88.0723 5.40886C88.3511 5.31952 88.6452 5.29251 88.9547 5.32783C89.2628 5.36125 89.5749 5.4773 89.8908 5.67599C90.2068 5.87469 90.5167 6.17824 90.8205 6.58664L91.0324 6.87157L87.6588 9.38097L87.2265 8.79971L89.9162 6.79897C89.7326 6.55203 89.5193 6.36842 89.2764 6.24814C89.0354 6.12645 88.783 6.07668 88.5191 6.09884C88.2572 6.11958 88.0047 6.22039 87.7615 6.40124C87.4937 6.60047 87.3114 6.83933 87.2147 7.11784C87.1184 7.39303 87.0965 7.6749 87.1488 7.96346C87.2012 8.25202 87.3171 8.51693 87.4965 8.75817L87.7848 9.14568C88.0306 9.4762 88.296 9.71399 88.581 9.85906C88.8664 10.0008 89.1562 10.0552 89.4504 10.0223C89.7431 9.98747 90.0253 9.86903 90.2969 9.66698C90.4736 9.53557 90.6148 9.39219 90.7205 9.23683C90.8267 9.07816 90.8946 8.90963 90.9242 8.73124C90.9524 8.55095 90.9385 8.36363 90.8824 8.16928L91.6677 7.86841C91.7632 8.13962 91.7924 8.41886 91.7553 8.70612C91.7168 8.99148 91.6134 9.26901 91.4452 9.53871C91.2756 9.8065 91.0426 10.0506 90.7463 10.271Z" fill="#472B0B"/>
<path d="M25.3924 76.1685L122.303 4.12953L130.818 5.61868L42.53 79.3296L25.3924 76.1685Z" fill="#EDEDED"/>
<path d="M57.3187 71.1596C57.3432 71.1895 57.3626 71.2224 57.3746 71.2541C57.3865 71.2858 57.3905 71.3149 57.3859 71.3377C57.3814 71.3605 57.3685 71.376 57.349 71.3823C57.3294 71.3885 57.3041 71.3852 57.2761 71.3728C56.3155 70.9458 55.2782 71.7947 55.5066 72.8208C55.5148 72.8601 55.508 72.8911 55.4878 72.9071C55.4675 72.923 55.4354 72.9228 55.3984 72.9063C55.3613 72.8899 55.3223 72.8585 55.2897 72.819C55.2571 72.7795 55.2335 72.7351 55.2241 72.6952L54.6384 70.0644C54.6295 70.0244 54.6358 69.9926 54.656 69.9761C54.6762 69.9596 54.7086 69.9597 54.746 69.9763L57.209 71.071C57.2275 71.0792 57.2468 71.0913 57.2656 71.1065C57.2844 71.1217 57.3025 71.1398 57.3187 71.1596Z" fill="#472B0B"/>
<path d="M61.0852 79.5648C61.0643 79.5381 61.0475 79.5092 61.0368 79.4818C61.0261 79.4544 61.022 79.4297 61.0251 79.4109C61.0281 79.3921 61.0382 79.3799 61.054 79.3759C61.0698 79.372 61.0906 79.3764 61.1139 79.3887C61.8599 79.7831 62.7214 79.1098 62.519 78.2905C62.5112 78.257 62.5159 78.2315 62.5319 78.2194C62.548 78.2073 62.5743 78.2097 62.6051 78.2259C62.6358 78.2422 62.6687 78.2711 62.6965 78.3064C62.7242 78.3417 62.7448 78.3805 62.7537 78.4146L63.3086 80.6609C63.3171 80.6951 63.3128 80.7213 63.2968 80.7338C63.2807 80.7464 63.2542 80.7442 63.2231 80.7277L61.1775 79.6464C61.1621 79.6383 61.146 79.6269 61.1301 79.6128C61.1143 79.5988 61.099 79.5825 61.0852 79.5648Z" fill="#472B0B"/>
<path d="M3.54199 104.602L26.9766 120.624" stroke="#472B0B" stroke-width="0.5"/>
<path d="M25.5715 120.872C25.5441 120.855 25.5195 120.835 25.5009 120.814C25.4823 120.793 25.4706 120.772 25.4671 120.754C25.4636 120.735 25.4685 120.72 25.4813 120.71C25.4941 120.7 25.5141 120.695 25.5389 120.697C26.3701 120.766 26.9001 119.825 26.4284 119.119C26.4104 119.091 26.4061 119.065 26.4164 119.048C26.4268 119.03 26.451 119.022 26.4838 119.025C26.5166 119.027 26.5554 119.041 26.5918 119.062C26.6283 119.084 26.6595 119.111 26.6787 119.139L27.9165 120.993C27.9353 121.022 27.9402 121.047 27.93 121.065C27.9199 121.083 27.8956 121.092 27.8624 121.089L25.6809 120.91C25.6644 120.909 25.6463 120.905 25.6275 120.898C25.6088 120.892 25.5898 120.883 25.5715 120.872Z" fill="#472B0B"/>
<path d="M4.68858 104.049C4.71577 104.07 4.73947 104.093 4.75667 104.117C4.77387 104.141 4.7838 104.165 4.78522 104.185C4.78663 104.204 4.77946 104.22 4.76461 104.229C4.74977 104.237 4.72791 104.239 4.7018 104.234C3.82747 104.065 3.14564 104.982 3.55937 105.771C3.57514 105.802 3.57658 105.829 3.56338 105.846C3.55018 105.863 3.52339 105.869 3.48878 105.863C3.45418 105.856 3.41453 105.837 3.37837 105.81C3.34221 105.784 3.31244 105.751 3.29547 105.72L2.20682 103.645C2.19026 103.614 2.18829 103.586 2.20132 103.568C2.21436 103.551 2.24134 103.545 2.27633 103.552L4.57695 103.996C4.59429 104 4.61307 104.006 4.63222 104.015C4.65138 104.024 4.67053 104.036 4.68858 104.049Z" fill="#472B0B"/>
<path d="M59.7549 98.6037L133.246 29.1192" stroke="#472B0B" stroke-width="0.5"/>
<path d="M59.7704 97.0434C59.7956 97.0207 59.8237 97.0024 59.851 96.9907C59.8784 96.979 59.9039 96.9745 59.9242 96.9778C59.9446 96.981 59.9588 96.9918 59.9653 97.0089C59.9717 97.0259 59.97 97.0484 59.9604 97.0736C59.627 97.9442 60.4203 98.8261 61.3212 98.5863C61.3554 98.5778 61.3831 98.5827 61.3981 98.6C61.4132 98.6173 61.4145 98.6457 61.4017 98.679C61.389 98.7123 61.3632 98.7479 61.3299 98.7781C61.2967 98.8083 61.2586 98.8306 61.2239 98.8404L58.9321 99.4502C58.8973 99.4595 58.869 99.455 58.8535 99.4377C58.8379 99.4205 58.8364 99.3918 58.8493 99.3582L59.6975 97.1435C59.7038 97.1268 59.7136 97.1094 59.7261 97.0922C59.7386 97.075 59.7537 97.0584 59.7704 97.0434Z" fill="#472B0B"/>
<path d="M133.198 30.6169C133.173 30.64 133.146 30.6592 133.119 30.6721C133.093 30.6849 133.068 30.6908 133.049 30.6889C133.029 30.6871 133.016 30.6777 133.01 30.6618C133.004 30.6459 133.006 30.6244 133.016 30.5998C133.34 29.7908 132.573 28.9712 131.744 29.2415C131.711 29.2518 131.685 29.2488 131.671 29.2332C131.656 29.2177 131.656 29.1907 131.669 29.1581C131.682 29.1256 131.708 29.0901 131.74 29.0592C131.773 29.0284 131.81 29.0047 131.844 28.9933L134.06 28.2705C134.093 28.2595 134.12 28.262 134.135 28.2775C134.149 28.293 134.15 28.3202 134.137 28.3531L133.27 30.5169C133.264 30.5332 133.254 30.5505 133.242 30.5676C133.229 30.5848 133.214 30.6015 133.198 30.6169Z" fill="#472B0B"/>
</svg>
